<svg width="131" height="58" viewBox="0 0 131 58" fill="none" xmlns="http://www.w3.org/2000/svg">
<g clip-path="url(#clip0_1119_945)">
<path d="M61.8068 37.1587V23.9302H56.7598V21.3491H69.873V23.9302H64.8029V37.1587H61.8068Z" fill="#FF6E4A"/>
<path d="M61.8068 37.1587V23.9302H56.7598V21.3491H69.873V23.9302H64.8029V37.1587H61.8068Z" fill="#FF6E4A"/>
<path d="M68.7432 37.1586L73.0759 30.913L69.0427 25.0364H72.4535L74.8504 28.7927H74.9887L77.4316 25.0364H80.6349L76.5789 30.8441L80.8655 37.1586H77.5007L74.8043 32.9641H74.6661L71.9467 37.1586H68.7432Z" fill="#FF6E4A"/>
<path d="M68.7432 37.1586L73.0759 30.913L69.0427 25.0364H72.4535L74.8504 28.7927H74.9887L77.4316 25.0364H80.6349L76.5789 30.8441L80.8655 37.1586H77.5007L74.8043 32.9641H74.6661L71.9467 37.1586H68.7432Z" fill="#FF6E4A"/>
<path d="M81.6035 37.1587V21.3491H93.9332V23.9073H84.5996V27.8021H92.9192V30.3601H84.5996V34.6005H94.0715V37.1587H81.6035Z" fill="#FF6E4A"/>
<path d="M81.6035 37.1587V21.3491H93.9332V23.9073H84.5996V27.8021H92.9192V30.3601H84.5996V34.6005H94.0715V37.1587H81.6035Z" fill="#FF6E4A"/>
<path d="M63.835 57.4666C62.9592 57.4666 62.1216 57.3706 61.3229 57.1786C60.5239 56.9866 59.8171 56.687 59.2028 56.2799C58.588 55.8729 58.104 55.366 57.7507 54.7589C57.3971 54.152 57.2207 53.4337 57.2207 52.6041C57.2207 52.5118 57.2243 52.4197 57.2322 52.3274C57.2398 52.2354 57.2439 52.1661 57.2439 52.1201H60.2629C60.2629 52.151 60.2589 52.2085 60.2513 52.2928C60.2433 52.3774 60.2397 52.4507 60.2397 52.5118C60.2397 53.0187 60.3856 53.4531 60.6776 53.8138C60.9692 54.1751 61.392 54.4517 61.9451 54.6435C62.4981 54.8357 63.1511 54.9315 63.904 54.9315C64.411 54.9315 64.8603 54.9009 65.2522 54.8393C65.644 54.7781 65.9817 54.6897 66.2663 54.5744C66.5502 54.4592 66.7848 54.3209 66.969 54.1595C67.1534 53.9982 67.2877 53.8178 67.3723 53.6179C67.4566 53.4185 67.4992 53.2031 67.4992 52.9727C67.4992 52.5272 67.3608 52.1584 67.0843 51.8663C66.8077 51.5746 66.4351 51.3289 65.9666 51.1288C65.4977 50.9295 64.9676 50.7487 64.3763 50.5873C63.7847 50.426 63.178 50.2611 62.5557 50.0917C61.9335 49.9229 61.3263 49.7194 60.7351 49.4812C60.1434 49.2431 59.6132 48.9549 59.1448 48.6169C58.676 48.2791 58.3036 47.8528 58.0271 47.3378C57.7505 46.8233 57.6123 46.205 57.6123 45.4827C57.6123 44.7451 57.7694 44.0998 58.0847 43.5467C58.3993 42.9938 58.8452 42.5367 59.4213 42.1755C59.9974 41.8148 60.6694 41.5456 61.4379 41.3689C62.2059 41.1925 63.0432 41.104 63.9499 41.104C64.7947 41.104 65.5898 41.1925 66.3351 41.3689C67.0802 41.5456 67.737 41.8223 68.3055 42.1984C68.8737 42.5752 69.3196 43.0513 69.6423 43.6274C69.965 44.2035 70.1263 44.8913 70.1263 45.6899V45.9666H67.1535V45.7362C67.1535 45.2908 67.0188 44.9144 66.7501 44.607C66.4811 44.2997 66.1049 44.0617 65.6208 43.8926C65.1368 43.7238 64.5722 43.6391 63.927 43.6391C63.2356 43.6391 62.6439 43.7045 62.1525 43.8348C61.6607 43.9657 61.2843 44.1577 61.0233 44.4112C60.7618 44.6646 60.6314 44.9757 60.6314 45.3444C60.6314 45.7288 60.7696 46.0514 61.0462 46.3125C61.3227 46.5738 61.6951 46.7965 62.1639 46.9807C62.6324 47.1652 63.1624 47.3343 63.7541 47.4878C64.3454 47.6416 64.9525 47.8068 65.5747 47.9832C66.197 48.16 66.8037 48.3636 67.3954 48.5939C67.9866 48.8244 68.5167 49.1124 68.9857 49.4581C69.4541 49.8039 69.8268 50.2301 70.1034 50.7372C70.3798 51.2441 70.5181 51.8513 70.5181 52.5578C70.5181 53.7411 70.2301 54.6934 69.6539 55.4154C69.0778 56.1377 68.2863 56.66 67.2801 56.9825C66.2737 57.3052 65.1253 57.4665 63.8347 57.4665L63.835 57.4666Z" fill="#FF6E4A"/>
<path d="M63.835 57.4666C62.9592 57.4666 62.1216 57.3706 61.3229 57.1786C60.5239 56.9866 59.8171 56.687 59.2028 56.2799C58.588 55.8729 58.104 55.366 57.7507 54.7589C57.3971 54.152 57.2207 53.4337 57.2207 52.6041C57.2207 52.5118 57.2243 52.4197 57.2322 52.3274C57.2398 52.2354 57.2439 52.1661 57.2439 52.1201H60.2629C60.2629 52.151 60.2589 52.2085 60.2513 52.2928C60.2433 52.3774 60.2397 52.4507 60.2397 52.5118C60.2397 53.0187 60.3856 53.4531 60.6776 53.8138C60.9692 54.1751 61.392 54.4517 61.9451 54.6435C62.4981 54.8357 63.1511 54.9315 63.904 54.9315C64.411 54.9315 64.8603 54.9009 65.2522 54.8393C65.644 54.7781 65.9817 54.6897 66.2663 54.5744C66.5502 54.4592 66.7848 54.3209 66.969 54.1595C67.1534 53.9982 67.2877 53.8178 67.3723 53.6179C67.4566 53.4185 67.4992 53.2031 67.4992 52.9727C67.4992 52.5272 67.3608 52.1584 67.0843 51.8663C66.8077 51.5746 66.4351 51.3289 65.9666 51.1288C65.4977 50.9295 64.9676 50.7487 64.3763 50.5873C63.7847 50.426 63.178 50.2611 62.5557 50.0917C61.9335 49.9229 61.3263 49.7194 60.7351 49.4812C60.1434 49.2431 59.6132 48.9549 59.1448 48.6169C58.676 48.2791 58.3036 47.8528 58.0271 47.3378C57.7505 46.8233 57.6123 46.205 57.6123 45.4827C57.6123 44.7451 57.7694 44.0998 58.0847 43.5467C58.3993 42.9938 58.8452 42.5367 59.4213 42.1755C59.9974 41.8148 60.6694 41.5456 61.4379 41.3689C62.2059 41.1925 63.0432 41.104 63.9499 41.104C64.7947 41.104 65.5898 41.1925 66.3351 41.3689C67.0802 41.5456 67.737 41.8223 68.3055 42.1984C68.8737 42.5752 69.3196 43.0513 69.6423 43.6274C69.965 44.2035 70.1263 44.8913 70.1263 45.6899V45.9666H67.1535V45.7362C67.1535 45.2908 67.0188 44.9144 66.7501 44.607C66.4811 44.2997 66.1049 44.0617 65.6208 43.8926C65.1368 43.7238 64.5722 43.6391 63.927 43.6391C63.2356 43.6391 62.6439 43.7045 62.1525 43.8348C61.6607 43.9657 61.2843 44.1577 61.0233 44.4112C60.7618 44.6646 60.6314 44.9757 60.6314 45.3444C60.6314 45.7288 60.7696 46.0514 61.0462 46.3125C61.3227 46.5738 61.6951 46.7965 62.1639 46.9807C62.6324 47.1652 63.1624 47.3343 63.7541 47.4878C64.3454 47.6416 64.9525 47.8068 65.5747 47.9832C66.197 48.16 66.8037 48.3636 67.3954 48.5939C67.9866 48.8244 68.5167 49.1124 68.9857 49.4581C69.4541 49.8039 69.8268 50.2301 70.1034 50.7372C70.3798 51.2441 70.5181 51.8513 70.5181 52.5578C70.5181 53.7411 70.2301 54.6934 69.6539 55.4154C69.0778 56.1377 68.2863 56.66 67.2801 56.9825C66.2737 57.3052 65.1253 57.4665 63.8347 57.4665L63.835 57.4666Z" fill="#FF6E4A"/>
<path d="M75.6577 57.4666C74.4899 57.4666 73.541 57.1479 72.8115 56.5103C72.0815 55.8729 71.7168 54.7858 71.7168 53.2492V45.0677H74.5284V52.7422C74.5284 53.1726 74.5782 53.5296 74.6783 53.8137C74.7779 54.0983 74.9238 54.3287 75.1162 54.5052C75.308 54.6819 75.5424 54.8086 75.8189 54.8853C76.0954 54.9624 76.4026 55.0006 76.7408 55.0006C77.248 55.0006 77.7048 54.8778 78.112 54.6319C78.5189 54.3863 78.8415 54.0441 79.0799 53.6064C79.318 53.1684 79.4371 52.6729 79.4371 52.1199V45.0676H82.2487V57.1899H79.9211L79.6908 55.5768H79.5293C79.2529 55.9455 78.9263 56.2721 78.5499 56.5561C78.1733 56.8406 77.7433 57.0631 77.2593 57.2245C76.7753 57.3858 76.2413 57.4664 75.6576 57.4664L75.6577 57.4666Z" fill="#FF6E4A"/>
<path d="M75.6577 57.4666C74.4899 57.4666 73.541 57.1479 72.8115 56.5103C72.0815 55.8729 71.7168 54.7858 71.7168 53.2492V45.0677H74.5284V52.7422C74.5284 53.1726 74.5782 53.5296 74.6783 53.8137C74.7779 54.0983 74.9238 54.3287 75.1162 54.5052C75.308 54.6819 75.5424 54.8086 75.8189 54.8853C76.0954 54.9624 76.4026 55.0006 76.7408 55.0006C77.248 55.0006 77.7048 54.8778 78.112 54.6319C78.5189 54.3863 78.8415 54.0441 79.0799 53.6064C79.318 53.1684 79.4371 52.6729 79.4371 52.1199V45.0676H82.2487V57.1899H79.9211L79.6908 55.5768H79.5293C79.2529 55.9455 78.9263 56.2721 78.5499 56.5561C78.1733 56.8406 77.7433 57.0631 77.2593 57.2245C76.7753 57.3858 76.2413 57.4664 75.6576 57.4664L75.6577 57.4666Z" fill="#FF6E4A"/>
<path d="M84 57.1901V45.0678H86.3508L86.5813 46.681H86.7425C87.0036 46.3123 87.3033 45.986 87.6413 45.7016C87.9791 45.4175 88.3672 45.1946 88.8051 45.0332C89.243 44.8719 89.723 44.7913 90.2456 44.7913C90.952 44.7913 91.5822 44.9375 92.1353 45.229C92.6885 45.5211 93.1183 46.0051 93.4259 46.6811H93.5872C93.8483 46.3124 94.1555 45.9862 94.5091 45.7017C94.8623 45.4176 95.2696 45.1947 95.7306 45.0333C96.1915 44.8721 96.6905 44.7914 97.2286 44.7914C97.9506 44.7914 98.5884 44.922 99.1415 45.1832C99.6947 45.4446 100.133 45.8745 100.455 46.4738C100.778 47.073 100.939 47.8721 100.939 48.8707V57.1903H98.1275V49.4468C98.1275 49.0319 98.0813 48.6826 97.9891 48.3982C97.897 48.1141 97.7701 47.8912 97.609 47.7298C97.4476 47.5687 97.2477 47.4498 97.0096 47.3727C96.7714 47.296 96.5142 47.2574 96.2376 47.2574C95.7918 47.2574 95.3924 47.3805 95.0392 47.6262C94.6857 47.8721 94.4056 48.2103 94.198 48.6401C93.9906 49.0705 93.887 49.5698 93.887 50.1381V57.1903H91.0752V49.4468C91.0752 49.0319 91.0294 48.6826 90.937 48.3982C90.8449 48.1141 90.718 47.8912 90.5569 47.7298C90.3956 47.5687 90.1956 47.4498 89.9577 47.3727C89.7194 47.296 89.4621 47.2574 89.1857 47.2574C88.7398 47.2574 88.3365 47.3805 87.9757 47.6262C87.6145 47.8721 87.3304 48.2103 87.1231 48.6401C86.9157 49.0705 86.812 49.5698 86.812 50.1381V57.1903H84.0003L84 57.1901Z" fill="#FF6E4A"/>
<path d="M84 57.1901V45.0678H86.3508L86.5813 46.681H86.7425C87.0036 46.3123 87.3033 45.986 87.6413 45.7016C87.9791 45.4175 88.3672 45.1946 88.8051 45.0332C89.243 44.8719 89.723 44.7913 90.2456 44.7913C90.952 44.7913 91.5822 44.9375 92.1353 45.229C92.6885 45.5211 93.1183 46.0051 93.4259 46.6811H93.5872C93.8483 46.3124 94.1555 45.9862 94.5091 45.7017C94.8623 45.4176 95.2696 45.1947 95.7306 45.0333C96.1915 44.8721 96.6905 44.7914 97.2286 44.7914C97.9506 44.7914 98.5884 44.922 99.1415 45.1832C99.6947 45.4446 100.133 45.8745 100.455 46.4738C100.778 47.073 100.939 47.8721 100.939 48.8707V57.1903H98.1275V49.4468C98.1275 49.0319 98.0813 48.6826 97.9891 48.3982C97.897 48.1141 97.7701 47.8912 97.609 47.7298C97.4476 47.5687 97.2477 47.4498 97.0096 47.3727C96.7714 47.296 96.5142 47.2574 96.2376 47.2574C95.7918 47.2574 95.3924 47.3805 95.0392 47.6262C94.6857 47.8721 94.4056 48.2103 94.198 48.6401C93.9906 49.0705 93.887 49.5698 93.887 50.1381V57.1903H91.0752V49.4468C91.0752 49.0319 91.0294 48.6826 90.937 48.3982C90.8449 48.1141 90.718 47.8912 90.5569 47.7298C90.3956 47.5687 90.1956 47.4498 89.9577 47.3727C89.7194 47.296 89.4621 47.2574 89.1857 47.2574C88.7398 47.2574 88.3365 47.3805 87.9757 47.6262C87.6145 47.8721 87.3304 48.2103 87.1231 48.6401C86.9157 49.0705 86.812 49.5698 86.812 50.1381V57.1903H84.0003L84 57.1901Z" fill="#FF6E4A"/>
<path d="M102.599 57.1901V45.0678H104.949L105.18 46.681H105.341C105.602 46.3123 105.902 45.986 106.24 45.7016C106.578 45.4175 106.966 45.1946 107.404 45.0332C107.842 44.8719 108.322 44.7913 108.844 44.7913C109.551 44.7913 110.181 44.9375 110.734 45.229C111.287 45.5211 111.717 46.0051 112.024 46.6811H112.186C112.447 46.3124 112.754 45.9862 113.108 45.7017C113.461 45.4176 113.868 45.1947 114.329 45.0333C114.79 44.8721 115.289 44.7914 115.827 44.7914C116.549 44.7914 117.187 44.922 117.74 45.1832C118.293 45.4446 118.731 45.8745 119.053 46.4738C119.376 47.073 119.537 47.8721 119.537 48.8707V57.1903H116.726V49.4468C116.726 49.0319 116.68 48.6826 116.588 48.3982C116.496 48.1141 116.369 47.8912 116.207 47.7298C116.046 47.5687 115.846 47.4498 115.608 47.3727C115.37 47.296 115.113 47.2574 114.836 47.2574C114.39 47.2574 113.991 47.3805 113.638 47.6262C113.284 47.8721 113.004 48.2103 112.796 48.6401C112.589 49.0705 112.485 49.5698 112.485 50.1381V57.1903H109.674V49.4468C109.674 49.0319 109.628 48.6826 109.535 48.3982C109.443 48.1141 109.316 47.8912 109.155 47.7298C108.994 47.5687 108.794 47.4498 108.556 47.3727C108.318 47.296 108.061 47.2574 107.784 47.2574C107.338 47.2574 106.935 47.3805 106.574 47.6262C106.213 47.8721 105.929 48.2103 105.721 48.6401C105.514 49.0705 105.41 49.5698 105.41 50.1381V57.1903H102.599V57.1901Z" fill="#FF6E4A"/>
<path d="M102.599 57.1901V45.0678H104.949L105.18 46.681H105.341C105.602 46.3123 105.902 45.986 106.24 45.7016C106.578 45.4175 106.966 45.1946 107.404 45.0332C107.842 44.8719 108.322 44.7913 108.844 44.7913C109.551 44.7913 110.181 44.9375 110.734 45.229C111.287 45.5211 111.717 46.0051 112.024 46.6811H112.186C112.447 46.3124 112.754 45.9862 113.108 45.7017C113.461 45.4176 113.868 45.1947 114.329 45.0333C114.79 44.8721 115.289 44.7914 115.827 44.7914C116.549 44.7914 117.187 44.922 117.74 45.1832C118.293 45.4446 118.731 45.8745 119.053 46.4738C119.376 47.073 119.537 47.8721 119.537 48.8707V57.1903H116.726V49.4468C116.726 49.0319 116.68 48.6826 116.588 48.3982C116.496 48.1141 116.369 47.8912 116.207 47.7298C116.046 47.5687 115.846 47.4498 115.608 47.3727C115.37 47.296 115.113 47.2574 114.836 47.2574C114.39 47.2574 113.991 47.3805 113.638 47.6262C113.284 47.8721 113.004 48.2103 112.796 48.6401C112.589 49.0705 112.485 49.5698 112.485 50.1381V57.1903H109.674V49.4468C109.674 49.0319 109.628 48.6826 109.535 48.3982C109.443 48.1141 109.316 47.8912 109.155 47.7298C108.994 47.5687 108.794 47.4498 108.556 47.3727C108.318 47.296 108.061 47.2574 107.784 47.2574C107.338 47.2574 106.935 47.3805 106.574 47.6262C106.213 47.8721 105.929 48.2103 105.721 48.6401C105.514 49.0705 105.41 49.5698 105.41 50.1381V57.1903H102.599V57.1901Z" fill="#FF6E4A"/>
<path d="M121.196 45.0677H124.008V57.19H121.196V45.0677ZM121.196 40.5276H124.008V43.2009H121.196V40.5276Z" fill="#FF6E4A"/>
<path d="M128.963 57.4666C128.21 57.4666 127.619 57.317 127.189 57.0173C126.759 56.7177 126.455 56.334 126.278 55.865C126.102 55.3966 126.013 54.9166 126.013 54.4248V47.3726H124.562V45.0679H126.082L126.59 41.6802H128.825V45.0679H130.922V47.3726H128.825V54.1482C128.825 54.4707 128.909 54.7206 129.079 54.897C129.247 55.0739 129.501 55.1621 129.839 55.1621H130.922V57.098C130.769 57.1596 130.58 57.2169 130.358 57.2708C130.135 57.3243 129.9 57.3707 129.654 57.4092C129.409 57.4473 129.178 57.4667 128.963 57.4667L128.963 57.4666Z" fill="#FF6E4A"/>
<path d="M128.963 57.4666C128.21 57.4666 127.619 57.317 127.189 57.0173C126.759 56.7177 126.455 56.334 126.278 55.865C126.102 55.3966 126.013 54.9166 126.013 54.4248V47.3726H124.562V45.0679H126.082L126.59 41.6802H128.825V45.0679H130.922V47.3726H128.825V54.1482C128.825 54.4707 128.909 54.7206 129.079 54.897C129.247 55.0739 129.501 55.1621 129.839 55.1621H130.922V57.098C130.769 57.1596 130.58 57.2169 130.358 57.2708C130.135 57.3243 129.9 57.3707 129.654 57.4092C129.409 57.4473 129.178 57.4667 128.963 57.4667L128.963 57.4666Z" fill="#FF6E4A"/>
<path d="M14.99 45.2767V45.2779C15.2811 45.4185 15.5755 45.5519 15.8738 45.6756C16.1902 45.8089 16.5113 45.9324 16.8362 46.0465H16.8375C17.1854 46.1701 17.5381 46.284 17.8945 46.3871C18.2183 46.4804 18.543 46.5654 18.8715 46.6429H18.8728C18.9286 46.6562 18.9842 46.6683 19.0401 46.6818H19.0414C19.051 46.6841 19.0607 46.6854 19.0705 46.6878H19.0715H19.0728C19.4074 46.7629 19.7456 46.8296 20.0851 46.8866H20.0862C20.1734 46.9024 20.2633 46.9168 20.3518 46.9314H20.353C20.3687 46.9338 20.3832 46.9363 20.399 46.9386C20.7493 46.9932 21.1009 47.0381 21.4548 47.0745C21.5905 47.0889 21.7276 47.101 21.8633 47.112H21.8645C21.8912 47.1156 21.9155 47.1168 21.9409 47.118H21.942C22.5251 47.1666 23.1082 47.1895 23.6951 47.1895C23.6659 47.1992 23.6369 47.2089 23.6078 47.2185H23.7266L23.8127 47.1895H23.8138H23.8163C24.6757 47.1846 25.5365 47.1301 26.391 47.0258L26.3922 47.027L26.3935 47.0258H26.3947C29.367 46.6682 32.2679 45.7226 34.7955 44.2462C35.3398 43.9286 35.8672 43.5855 36.3738 43.2182C36.3738 43.217 36.375 43.217 36.375 43.217C36.5241 43.1102 36.6696 43.0013 36.8151 42.8886L36.8162 42.8874H36.8174C37.0962 42.6728 37.369 42.4509 37.6333 42.2205C37.8068 42.0702 37.9776 41.9163 38.1448 41.7588L38.146 41.7575C38.1594 41.7442 38.1714 41.7334 38.1861 41.72C38.3764 41.5393 38.563 41.3553 38.7449 41.1661C38.6806 41.092 38.6249 41.0109 38.5763 40.9248C38.5727 40.92 38.5691 40.9139 38.5667 40.9079C38.4648 40.7259 38.3933 40.5236 38.3449 40.3113C38.3437 40.3053 38.3424 40.2992 38.34 40.292C38.2939 40.0809 38.2709 39.8629 38.2637 39.6496V39.6483C38.2552 39.4022 38.2685 39.1622 38.2928 38.9489C38.3339 38.5962 38.4045 38.3185 38.4578 38.2047C38.4588 38.1986 38.4627 38.1925 38.465 38.1878C38.4928 38.0895 38.7003 37.7755 38.9692 37.3451C38.9753 37.3366 38.9802 37.3282 38.985 37.3197C39.1401 37.0723 39.3148 36.7863 39.4858 36.4834C39.4906 36.4749 39.4954 36.4664 39.4991 36.4589C39.5682 36.3366 39.6361 36.2116 39.7027 36.0857C39.6286 36.2142 39.5525 36.3413 39.4737 36.4664C39.4688 36.4749 39.464 36.4845 39.4567 36.493C39.2748 36.7876 39.082 37.0748 38.8808 37.3536C38.8748 37.3633 38.8687 37.3718 38.8614 37.3804V37.3816C38.6299 37.7015 38.3874 38.0119 38.1342 38.3113C37.9826 38.4907 37.8276 38.6665 37.6688 38.8374C37.5221 38.9962 37.3729 39.1515 37.2202 39.303L37.2189 39.3041C37.0735 39.4508 36.9256 39.5926 36.7728 39.7334C36.528 39.9612 36.2758 40.1795 36.0177 40.3916L36.0165 40.3928H36.0141C35.4467 40.8571 34.8515 41.285 34.2284 41.6728C34.2284 41.6728 34.2284 41.674 34.2272 41.674C34.2151 41.6838 34.203 41.691 34.1897 41.6983C34.1897 41.6996 34.1885 41.6996 34.1885 41.6996C33.8962 41.8815 33.5969 42.056 33.2939 42.2207C32.8732 42.4512 32.4428 42.6658 32.004 42.8634H32.0029C30.0366 43.7483 27.9079 44.3084 25.744 44.5241H25.7429C25.6822 44.5302 25.6228 44.5362 25.5622 44.541H25.561C25.5198 44.5459 25.481 44.5495 25.441 44.5519H25.4397C24.7051 44.6162 23.967 44.6394 23.2311 44.6224H23.2298C22.648 44.6091 22.0685 44.5702 21.4927 44.5071H21.4915C21.0091 44.4538 20.5289 44.3823 20.0538 44.2927H20.0525C19.6319 44.215 19.2149 44.1228 18.8028 44.0163H18.8016C18.4282 43.9205 18.0585 43.8125 17.6936 43.6937H17.6923C17.3554 43.5846 17.0234 43.4647 16.6934 43.335C16.6923 43.335 16.6923 43.3337 16.6923 43.3337C16.394 43.2173 16.0982 43.0912 15.8073 42.958C15.7989 42.9544 15.7904 42.9495 15.7806 42.9459C15.4993 42.8162 15.2205 42.6792 14.9466 42.5338C14.9453 42.5325 14.9453 42.5325 14.9441 42.5325C14.7987 42.4549 14.6544 42.3761 14.5125 42.295C14.4011 42.2319 14.2896 42.1676 14.1805 42.101H14.1793C14.1769 42.0997 14.1744 42.0986 14.1733 42.0973C13.9332 41.953 13.6956 41.8027 13.463 41.6452C13.4617 41.6452 13.4605 41.644 13.4594 41.6428C13.2399 41.4962 13.0229 41.3423 12.8108 41.1834C12.8083 41.1809 12.8072 41.1798 12.8047 41.1773H12.8035C12.8011 41.176 12.7999 41.1749 12.7975 41.1724H12.7963C12.5914 41.0185 12.3901 40.8596 12.1926 40.6949C12.189 40.6924 12.1852 40.69 12.1816 40.6864V40.6851C11.9865 40.5251 11.7963 40.3578 11.6084 40.1856C11.4264 40.0196 11.2494 39.8473 11.0761 39.6716H11.0749C10.9379 39.5336 10.8022 39.3916 10.67 39.2474C10.4312 39.4098 10.2129 39.5298 10.2129 39.5298C10.2129 39.5298 10.2504 39.6801 10.3027 39.9263V39.9275L10.4276 40.576V40.5772C10.4616 40.7796 10.4968 41.0014 10.5258 41.233V41.2342C10.5258 41.2378 10.5269 41.2425 10.5269 41.2475C10.5343 41.3081 10.5415 41.3687 10.5487 41.4306C10.5694 41.6196 10.59 41.7676 10.6167 41.8826C10.6167 41.8863 10.6179 41.8887 10.6179 41.8924C10.6203 41.8985 10.6215 41.9057 10.6226 41.9117C10.6686 42.0972 10.7294 42.1881 10.83 42.2207C10.8979 42.2427 10.9827 42.2391 11.0931 42.2207H12.9114C12.9974 42.2802 13.0666 42.3553 13.1235 42.4438C13.1271 42.4487 13.1295 42.4523 13.132 42.4571C13.2327 42.6159 13.298 42.8172 13.3695 43.0536C13.3708 43.0572 13.3719 43.0608 13.3731 43.0657C13.4277 43.2499 13.4872 43.4549 13.5672 43.6779C13.5998 43.7711 13.6374 43.8669 13.6798 43.9652C13.744 44.0778 13.8035 44.176 13.8567 44.2718H13.8579C13.9478 44.4331 14.0193 44.587 14.0664 44.7968C14.1029 44.8174 14.1392 44.838 14.1768 44.8573C14.2749 44.9119 14.3745 44.9654 14.4749 45.0173C14.6448 45.1082 14.8169 45.1944 14.9902 45.2768L14.99 45.2767Z" fill="#FF6E4A"/>
<path d="M10.372 26.7911C10.3587 26.5633 10.3514 26.3353 10.3502 26.1075V26.1062C10.3478 25.8747 10.3514 25.6443 10.3599 25.4141C10.3684 25.1788 10.3818 24.9449 10.4012 24.7108V24.7096C10.4205 24.4697 10.4459 24.2319 10.4775 23.9943C10.509 23.7508 10.5466 23.5083 10.5916 23.267C10.6351 23.0209 10.6848 22.7774 10.7417 22.5336C10.743 22.5312 10.743 22.53 10.743 22.5275V22.5264C10.8024 22.2729 10.8691 22.0209 10.943 21.7711V21.7699C11.0171 21.5105 11.0995 21.2534 11.1891 20.9989C11.2838 20.731 11.3855 20.4679 11.4959 20.2074C11.4959 20.2062 11.4972 20.2062 11.4972 20.2062C11.6073 19.9408 11.7276 19.6801 11.8547 19.423C11.8596 19.4121 11.8644 19.4024 11.8704 19.3928C12.0076 19.1164 12.1541 18.846 12.3118 18.5805C12.3167 18.5708 12.3227 18.5612 12.3299 18.5514V18.5501C12.5033 18.2568 12.6889 17.9695 12.8853 17.6908C12.8889 17.6847 12.8925 17.6787 12.8974 17.6738V17.6726H12.8985C13.0549 17.4484 13.221 17.2302 13.3931 17.0168C13.4647 16.9272 13.5373 16.8387 13.6137 16.7514L13.615 16.7501C13.615 16.7477 13.6173 16.7465 13.6209 16.7441V16.7429C13.9204 16.3913 14.2417 16.0544 14.5835 15.7356L14.7473 15.681L14.5835 15.7343C14.683 15.6411 14.7848 15.5489 14.8891 15.4579C15.254 15.1393 15.6394 14.8386 16.048 14.5609C16.048 14.5597 16.0492 14.5597 16.0492 14.5597L16.0516 14.5585C17.9172 13.2832 20.2398 12.4431 23.0208 12.2527H23.0244C23.3141 12.2334 23.6087 12.22 23.9093 12.2152C24.2985 12.2225 24.6779 12.242 25.0501 12.2723H25.0513C25.5653 12.3159 26.0636 12.3814 26.546 12.4674H26.5473C26.6369 12.4831 26.7243 12.5001 26.8127 12.5171H26.814C27.1462 12.5838 27.4723 12.659 27.7898 12.7462H27.7922C27.8407 12.7583 27.8905 12.773 27.9389 12.7863C28.2552 12.8748 28.5632 12.9741 28.8639 13.0808C28.8856 13.0893 28.9074 13.0977 28.9294 13.1052C29.2287 13.2154 29.5198 13.333 29.8034 13.4603C29.8119 13.464 29.8204 13.4676 29.8289 13.4712C30.1077 13.5973 30.378 13.7307 30.641 13.8725L30.6423 13.8737C30.9004 14.0131 31.1514 14.1597 31.3951 14.3137L31.3961 14.3149C31.6301 14.4616 31.8557 14.6167 32.0763 14.778L32.0714 14.7805L32.0786 14.7792C32.292 14.9344 32.4993 15.0956 32.6994 15.2629H32.7005C32.7781 15.3272 32.8544 15.3926 32.9297 15.458C33.0448 15.5587 33.1575 15.6618 33.2678 15.7647V15.766C33.4266 15.915 33.5807 16.0677 33.731 16.2254L33.7539 16.2945L33.7866 16.2836C33.9502 16.4569 34.1079 16.6352 34.2606 16.817C34.4109 16.9951 34.5551 17.177 34.6958 17.3626V17.3636C34.8328 17.5455 34.9661 17.7322 35.0921 17.9213C35.0933 17.9213 35.0934 17.9225 35.0934 17.9225C35.0993 17.9321 35.1054 17.9406 35.1114 17.9503C35.2303 18.1284 35.3455 18.3091 35.4545 18.4922V18.4934C35.4617 18.5031 35.4678 18.5127 35.4727 18.5238C35.5819 18.7043 35.6848 18.8875 35.7829 19.0729V19.0741C35.7902 19.0862 35.7976 19.0983 35.8024 19.1104C35.9005 19.2934 35.994 19.4777 36.0812 19.6656C36.0885 19.6789 36.0946 19.691 36.0994 19.7045C36.1867 19.89 36.2704 20.0778 36.3478 20.2669C36.4327 20.4681 36.5114 20.6719 36.5866 20.8779L36.4981 20.9083L36.5866 20.8791C36.6617 21.084 36.7309 21.2913 36.7963 21.4998C36.8606 21.7082 36.9212 21.918 36.977 22.1303C37.012 22.2637 37.046 22.3994 37.0777 22.5338C37.0958 22.6126 37.1127 22.6902 37.1297 22.7691C37.177 22.9848 37.2183 23.2006 37.2545 23.4188C37.2922 23.637 37.3248 23.8563 37.3528 24.0758C37.3794 24.2976 37.4026 24.5206 37.4208 24.7437C37.4388 24.9692 37.4522 25.196 37.4594 25.4214C37.4679 25.6505 37.4715 25.8796 37.4691 26.1076C37.4679 26.3402 37.4607 26.5729 37.446 26.8046V26.8058C37.4351 27.0421 37.4169 27.2785 37.3926 27.5137C37.3684 27.7549 37.338 27.9949 37.3018 28.2337C37.2655 28.4798 37.223 28.7235 37.1733 28.966C37.1236 29.2167 37.0677 29.4653 37.0034 29.7127V29.7139C36.938 29.9696 36.8665 30.2218 36.7865 30.474V30.4751C36.7053 30.7371 36.6155 30.9965 36.5185 31.2534H36.5175C36.4168 31.5237 36.3064 31.7905 36.1865 32.0536C36.0653 32.3251 35.9343 32.593 35.7937 32.8561C35.7901 32.8633 35.7865 32.8706 35.7816 32.8778C35.6337 33.1578 35.4736 33.4319 35.3052 33.6998C35.3016 33.707 35.2968 33.7143 35.2919 33.7204C35.2895 33.7252 35.287 33.7276 35.2847 33.7312V33.7325C35.0943 34.0343 34.8906 34.3289 34.6749 34.6138C34.6713 34.6186 34.6676 34.6235 34.6639 34.6282C34.5864 34.7314 34.5077 34.832 34.4263 34.9313C34.2468 35.1531 34.059 35.3701 33.8639 35.5822L33.8626 35.5834C33.8626 35.5834 33.8614 35.5847 33.8603 35.5858C33.7111 35.7472 33.5559 35.906 33.3971 36.0599H33.396C33.2445 36.2077 33.0892 36.3507 32.9305 36.4902C32.8723 36.5399 32.8154 36.5896 32.7572 36.638C32.7572 36.6392 32.756 36.6392 32.756 36.6392C32.7414 36.6513 32.7282 36.6635 32.7136 36.6745C32.6639 36.7169 32.6129 36.7581 32.5621 36.7994C32.0349 37.2261 31.4638 37.6152 30.8504 37.9594V37.9607C30.8079 37.9933 30.7668 38.0104 30.7243 38.0431L30.7231 38.0443H30.7219C30.7207 38.0443 30.7207 38.0443 30.7194 38.0456H30.7183C30.7171 38.0456 30.7171 38.0466 30.7158 38.0466H30.7147C30.7135 38.0466 30.7135 38.0466 30.7122 38.0478H30.711C30.71 38.0478 30.71 38.0491 30.7086 38.0491H30.7074C30.7063 38.0491 30.7063 38.0502 30.705 38.0502H30.7037C30.7025 38.0502 30.7025 38.0514 30.7014 38.0514H30.7001C30.6989 38.0514 30.6989 38.0527 30.6978 38.0527H30.6965C30.6953 38.0527 30.6953 38.0539 30.694 38.0539H30.693C30.6918 38.0539 30.6918 38.055 30.6905 38.055H30.6895C30.6883 38.055 30.6883 38.0563 30.687 38.0563H30.6858C30.6846 38.0563 30.6846 38.0575 30.6834 38.0575H30.6822C30.681 38.0575 30.681 38.0587 30.6798 38.0587H30.6785C30.6774 38.0587 30.6774 38.0599 30.6762 38.0599H30.6749C30.6737 38.0599 30.6737 38.0612 30.6726 38.0612H30.6713C30.6701 38.0612 30.6701 38.0624 30.6688 38.0624H30.6677C30.6665 38.0624 30.6665 38.0634 30.6652 38.0634H30.6641C30.6628 38.0634 30.6628 38.0647 30.6616 38.0647C29.3705 38.7629 27.8941 39.2707 26.2356 39.5338H26.2332C26.1496 39.5471 26.0636 39.5593 25.9787 39.5713H25.9775C25.3168 39.6648 24.627 39.7192 23.9094 39.7327C23.7956 39.7302 23.6827 39.7278 23.57 39.723C23.5288 39.7217 23.4901 39.7206 23.4487 39.7181H23.4463C23.4028 39.7169 23.3603 39.7145 23.3179 39.7121H23.3166C22.8003 39.6853 22.302 39.637 21.8171 39.5678H21.8158C21.7795 39.563 21.7433 39.5581 21.708 39.5534H21.7068C21.6293 39.5413 21.5517 39.5278 21.4753 39.5145H21.4741C21.1371 39.4599 20.8074 39.3932 20.486 39.3181H20.485C20.4582 39.312 20.4328 39.306 20.4074 39.2988H20.4062C20.3722 39.2914 20.3396 39.2829 20.3056 39.2733H20.3044C19.9894 39.1957 19.6813 39.1083 19.382 39.0114H19.3807C19.371 39.009 19.3638 39.0054 19.3552 39.0018H19.3539C19.3298 38.9944 19.3042 38.986 19.28 38.9774C19.3104 38.9678 19.3407 38.9568 19.3709 38.9472C19.3382 38.9568 19.3055 38.9665 19.2728 38.9751C18.9624 38.8732 18.6605 38.7605 18.3673 38.6393V38.6381C18.3491 38.632 18.3308 38.6236 18.3127 38.6163C18.3115 38.6163 18.3102 38.6151 18.3091 38.6151H18.3079C18.0278 38.4975 17.7563 38.3716 17.4907 38.2394V38.2381C17.2217 38.1036 16.9597 37.9593 16.7065 37.8078H16.7053C16.4617 37.6624 16.2265 37.5108 15.9974 37.3532V37.3519C15.7768 37.1993 15.5622 37.0404 15.3537 36.8756C15.2289 36.7773 15.1064 36.6767 14.9865 36.5738C14.9113 36.5095 14.8386 36.4453 14.7659 36.3798H14.7647C14.761 36.3762 14.7574 36.3725 14.7549 36.3713C14.6506 36.2768 14.5489 36.1821 14.4494 36.0853C14.3742 36.0138 14.3003 35.941 14.2288 35.8671H14.2276C14.1814 35.8198 14.1367 35.7737 14.0906 35.7253C13.9706 35.5991 13.8529 35.4708 13.7367 35.3397C13.5815 35.1626 13.4311 34.9822 13.2869 34.798C13.145 34.6173 13.008 34.4317 12.8772 34.2439C12.7462 34.0585 12.6201 33.8693 12.5014 33.6779C12.3813 33.4887 12.2673 33.2959 12.1595 33.1009C12.0503 32.9081 11.9474 32.7117 11.8503 32.5129C11.7522 32.3165 11.6588 32.1176 11.5715 31.9152C11.483 31.7152 11.4007 31.5127 11.3219 31.3079V31.3066C11.2431 31.103 11.1704 30.8981 11.1013 30.6909C11.0334 30.4824 10.9691 30.2726 10.9085 30.0629C10.8503 29.8519 10.7958 29.6398 10.7462 29.4277C10.6963 29.2131 10.6503 28.9986 10.6103 28.7827C10.5691 28.5646 10.5328 28.3464 10.5025 28.1269C10.4711 27.9063 10.4443 27.6858 10.4225 27.4638C10.4007 27.2396 10.3836 27.0153 10.3728 26.791L10.372 26.7911ZM10.8376 35.6077C10.9576 35.7689 11.0787 35.929 11.2048 36.0854C11.2229 36.1096 11.2423 36.1339 11.2618 36.1581H11.263C11.4097 36.341 11.5624 36.5207 11.7176 36.6975C11.8752 36.877 12.0375 37.0527 12.2038 37.2262L12.2048 37.2273C12.3746 37.4031 12.5479 37.5752 12.7249 37.7451C12.9067 37.9171 13.0922 38.0869 13.2825 38.2505C13.4765 38.4189 13.6753 38.5839 13.8778 38.7427C13.8778 38.7427 13.8778 38.7438 13.879 38.7438C14.0875 38.9088 14.2996 39.0676 14.5166 39.2227H14.5179C14.6718 39.3319 14.8282 39.4397 14.9858 39.544C15.0512 39.5864 15.1167 39.6288 15.1822 39.6713C15.1894 39.6761 15.1967 39.6809 15.2041 39.6846V39.6858C15.2744 39.7305 15.3457 39.7755 15.4186 39.8204C15.5835 39.9221 15.7508 40.0204 15.9204 40.1161C15.9277 40.121 15.935 40.1258 15.9436 40.1307H15.9447C15.9508 40.1343 15.9568 40.1379 15.9629 40.1415C16.2091 40.2797 16.4587 40.4118 16.7133 40.5392C16.7242 40.5441 16.7352 40.5488 16.7462 40.5549C17.0213 40.6907 17.3025 40.8205 17.5862 40.9405H17.5872C17.5993 40.9453 17.6092 40.9501 17.6213 40.9562C17.911 41.0774 18.2042 41.1926 18.5038 41.298H18.5051C18.5171 41.3029 18.5304 41.3077 18.5437 41.3113C18.5583 41.3162 18.5727 41.3222 18.5874 41.3258H18.5885C18.8867 41.4314 19.191 41.5271 19.4977 41.6143H19.4989C19.5535 41.6301 19.6081 41.6447 19.6637 41.6603H19.6649C19.9764 41.7452 20.2904 41.8204 20.6093 41.8857H20.6105C20.705 41.9053 20.8008 41.9246 20.8965 41.9428H20.8978C21.2213 42.0034 21.5487 42.0542 21.8797 42.0955H21.882C22.0397 42.116 22.1986 42.133 22.3585 42.1488H22.3609C22.7089 42.1817 23.0603 42.2034 23.4144 42.2131H23.4167C23.5791 42.218 23.7441 42.2203 23.9089 42.2203C24.0034 42.2264 24.098 42.2301 24.1925 42.2324H24.1937C24.5114 42.2434 24.8302 42.2385 25.1527 42.2203C25.8265 42.1817 26.5078 42.0821 27.194 41.9295L27.2 41.9282L27.2038 41.9271C28.1396 41.7161 29.0779 41.4033 29.9967 41.0033L29.9979 41.0021C30.8198 40.6445 31.626 40.2178 32.4006 39.7329C32.5861 39.6165 32.7679 39.4976 32.9498 39.3751C32.9498 39.374 32.9509 39.374 32.9509 39.374L33.0613 39.2989L33.0637 39.2976C33.6032 38.9291 34.122 38.5303 34.619 38.1084L34.6494 38.0831C35.0481 37.7424 35.4313 37.3872 35.795 37.0175C35.7974 37.0162 35.7996 37.0136 35.7996 37.0126L35.8021 37.0114C36.0978 36.7106 36.3815 36.4028 36.6506 36.0853C36.6687 36.0647 36.6857 36.0442 36.7027 36.0235C36.7076 36.0186 36.7125 36.0125 36.7161 36.0075C36.9683 35.7094 37.2071 35.4039 37.4314 35.0923V35.0912C37.4386 35.0815 37.4459 35.073 37.4532 35.0632C37.4532 35.0632 37.4532 35.0622 37.4543 35.0622C37.5259 34.9602 37.5974 34.8584 37.6677 34.7554C37.7914 34.5734 37.9102 34.3905 38.0241 34.2062C38.1963 33.9261 38.3574 33.6425 38.5066 33.3565C38.6459 33.0861 38.7757 32.8134 38.8933 32.5382C38.8946 32.5334 38.8969 32.5298 38.8994 32.5249C39.0086 32.2678 39.1079 32.0084 39.1963 31.7479C39.2824 31.4944 39.3589 31.2398 39.4242 30.983C39.486 30.7369 39.5393 30.4884 39.5817 30.2399C39.6229 30.001 39.6532 29.7598 39.6738 29.5198C39.6957 29.2858 39.7055 29.0531 39.7065 28.8192C39.7065 28.5911 39.698 28.3633 39.6799 28.1367C39.6617 27.9161 39.6338 27.6955 39.5974 27.4747V27.4735C39.5612 27.2576 39.515 27.0442 39.4605 26.8299C39.4059 26.6201 39.3428 26.4104 39.2703 26.2019C39.1988 25.9983 39.1175 25.7947 39.0278 25.5922C38.9405 25.3934 38.8422 25.1957 38.7357 24.9993C38.6301 24.8053 38.5162 24.6125 38.3926 24.4211C38.2713 24.2332 38.1404 24.0466 37.9998 23.8611C37.9574 23.8029 37.9126 23.7459 37.8676 23.6888C37.8119 23.5787 37.7803 23.4198 37.7671 23.2489C37.7477 23.0114 37.7671 22.7471 37.8132 22.5434L37.841 22.5337H37.8142C37.8459 22.3968 37.8894 22.2876 37.9416 22.2355C37.9887 22.1884 38.3393 22.1834 38.8374 22.2041H38.8386C39.1004 22.2138 39.4035 22.2307 39.7248 22.2513C39.703 22.1445 39.6788 22.0391 39.6545 21.9337C39.6059 21.7191 39.5526 21.507 39.4932 21.2972C39.4375 21.0851 39.3758 20.8742 39.3092 20.668C39.2436 20.4572 39.1733 20.2511 39.0994 20.0462C39.0243 19.8402 38.9443 19.6364 38.8605 19.4364V19.4352C38.7805 19.2378 38.6957 19.0424 38.6047 18.851C38.6035 18.845 38.6011 18.8389 38.5975 18.8329H38.5962C38.5066 18.6365 38.4119 18.4437 38.3126 18.2546C38.3113 18.2498 38.309 18.2449 38.3053 18.2402C38.2058 18.0461 38.1017 17.857 37.9937 17.6703C37.9913 17.6654 37.9888 17.6606 37.9852 17.6557C37.8835 17.4776 37.778 17.303 37.6676 17.1308V17.0835V17.0701V17.069L37.6349 17.0799C37.5124 16.8883 37.3865 16.7005 37.2556 16.5174C37.2556 16.5162 37.2543 16.5162 37.2543 16.5162C37.121 16.327 36.984 16.1428 36.8422 15.9623C36.6979 15.7767 36.5501 15.5961 36.3962 15.4203H36.3949C36.241 15.2385 36.0796 15.0615 35.9149 14.8893C35.7464 14.7112 35.573 14.5379 35.3961 14.3706C35.2144 14.1972 35.0276 14.0287 34.8385 13.8651H34.8373C34.6396 13.6953 34.4396 13.5317 34.2348 13.3754V13.3741H34.2335C34.0226 13.2094 33.8068 13.0506 33.5862 12.899C33.414 12.779 33.2383 12.6614 33.0601 12.5498C33.0031 12.5123 32.945 12.4759 32.8856 12.4406C32.7546 12.3583 32.6225 12.2795 32.4892 12.203C32.3703 12.1339 32.2491 12.066 32.1292 12.0006C31.8589 11.8539 31.5848 11.7144 31.3061 11.5836H31.3048C31.0103 11.4429 30.7121 11.3121 30.4091 11.1896H30.4079C30.0831 11.0586 29.7534 10.9373 29.4199 10.8272C29.0563 10.7059 28.6889 10.5969 28.318 10.501H28.3168C27.9677 10.4088 27.6149 10.3288 27.2597 10.2597C27.1967 10.2464 27.1337 10.2342 27.0707 10.2234H27.0694C26.6947 10.1531 26.3179 10.0963 25.9385 10.0513H25.9373C25.8294 10.0381 25.7203 10.027 25.6124 10.0163H25.6111C25.1724 9.97129 24.7311 9.94349 24.2898 9.93264C24.1262 9.92778 23.9624 9.92529 23.8 9.92529H23.799C23.7638 9.92529 23.7285 9.92529 23.6935 9.92654H23.6922C22.8159 9.9314 21.9405 10.0017 21.0762 10.1363C19.2372 10.4223 17.4492 11.003 15.8103 11.8782L15.7994 11.8818L15.7982 11.8831C15.5982 11.9886 15.4007 12.1 15.2054 12.2152C14.683 12.5243 14.1786 12.8663 13.6937 13.2396C13.6719 13.2553 13.6513 13.2712 13.6294 13.2893L13.6283 13.2905L13.6258 13.2918C13.6222 13.2941 13.6198 13.2966 13.6162 13.299L13.615 13.3002C13.182 13.6372 12.7688 13.9985 12.3724 14.3876C12.3675 14.3913 12.3628 14.3963 12.359 14.3998V14.4008C12.0378 14.7148 11.7287 15.047 11.4342 15.3961L11.433 15.3974C11.4294 15.401 11.4258 15.4058 11.4221 15.4107C11.176 15.7028 10.9384 16.0084 10.7118 16.3247V16.3259H10.7106V16.3269C10.5165 16.5985 10.33 16.8785 10.1518 17.1682C10.1433 17.1816 10.1348 17.195 10.1262 17.2095H10.125V17.2107C9.95761 17.4859 9.79647 17.7683 9.64256 18.0593C9.50176 18.3272 9.3674 18.6011 9.24004 18.8824V18.8835C9.12116 19.1442 9.00963 19.4109 8.9042 19.6837C8.80351 19.9395 8.70904 20.2 8.6218 20.4669V20.4679C8.60847 20.5032 8.59762 20.5395 8.58553 20.5757C8.83888 20.6995 9.07043 20.8279 9.25225 20.948L9.25349 20.9492C9.49826 21.1128 9.65352 21.2645 9.65352 21.3783C9.65352 21.4158 9.64866 21.4595 9.64019 21.5105V21.5116C9.60979 21.6958 9.52752 21.9639 9.42085 22.2729L9.41961 22.2742C9.39169 22.3578 9.36017 22.4451 9.32875 22.5336C9.26694 22.7033 9.2014 22.8791 9.13473 23.0585C9.03664 23.3216 8.93595 23.5895 8.84386 23.8454C8.75413 24.0963 8.67164 24.3364 8.60994 24.546C8.60271 24.5702 8.59423 24.5957 8.58564 24.62C8.44258 24.9969 8.07408 25.3351 7.66794 25.6092V25.6152L7.66309 25.6165V25.9996V26.3062L7.66557 26.305C7.67043 26.5329 7.67891 26.7608 7.69337 26.9863C7.70671 27.2117 7.72501 27.4361 7.74795 27.6591C7.77112 27.8809 7.79892 28.1015 7.83033 28.3211C7.86197 28.5404 7.89825 28.7586 7.93949 28.9756C7.97961 29.1926 8.02436 29.4085 8.07532 29.6219C8.1238 29.8352 8.17702 30.0484 8.23522 30.2582C8.29229 30.4705 8.35534 30.679 8.42077 30.8861C8.48744 31.0946 8.55773 31.3019 8.63288 31.5067C8.7069 31.7129 8.78679 31.9165 8.86939 32.119C8.95302 32.3214 9.04026 32.5226 9.13247 32.7215C9.22456 32.9228 9.32028 33.1203 9.42096 33.3167C9.52165 33.5156 9.62584 33.7108 9.735 33.9034C9.84393 34.0986 9.95795 34.2914 10.0756 34.4804C10.0998 34.5217 10.1266 34.5628 10.152 34.604C10.2465 34.7543 10.3434 34.9023 10.4441 35.0491C10.5702 35.238 10.7023 35.4248 10.8381 35.6079L10.8376 35.6077Z" fill="#FF6E4A"/>
<path d="M16.0039 25.6176V25.6163C16.0136 25.38 16.0318 25.1435 16.0608 24.9085C16.0899 24.6635 16.13 24.42 16.1797 24.1786C16.2317 23.9254 16.296 23.6731 16.3711 23.426V23.4247C16.4512 23.1592 16.5446 22.8974 16.6512 22.6428C16.6669 22.6065 16.6816 22.57 16.6973 22.5336C16.8028 22.2899 16.9203 22.0523 17.0501 21.8209L17.0512 21.8196C17.2198 21.5154 17.41 21.222 17.6197 20.942L17.621 20.9407C17.8864 20.5892 18.1834 20.2594 18.5131 19.9565L18.5144 19.9552C19.8115 18.7636 21.6092 17.9865 23.9088 17.9453C24.1113 17.949 24.3088 17.9587 24.5029 17.9745H24.5041C25.0047 18.0108 25.4786 18.0849 25.9273 18.1927H25.9296C26.3067 18.2823 26.6631 18.394 27.0037 18.5273H27.005C27.3068 18.6461 27.5953 18.7807 27.8692 18.931H27.8705C28.1237 19.068 28.3638 19.2194 28.5929 19.3819H28.5941C28.8086 19.5347 29.0135 19.6972 29.2063 19.8681V19.8693H29.2075C29.2196 19.8789 29.2304 19.8887 29.2415 19.9007C29.4137 20.0535 29.5774 20.216 29.7324 20.3844H29.7337V20.3856C29.7409 20.3929 29.7481 20.4002 29.7542 20.4088C29.907 20.5748 30.0499 20.747 30.1845 20.9251C30.1845 20.9251 30.1858 20.9251 30.1858 20.9264C30.1906 20.9336 30.1966 20.9408 30.2015 20.9483C30.3336 21.1228 30.456 21.3022 30.5712 21.4875L30.5482 21.496C30.5554 21.4936 30.5639 21.4913 30.5724 21.4888C30.6912 21.6779 30.8003 21.872 30.9021 22.0694C30.9797 22.2222 31.0524 22.3772 31.1216 22.5337C31.1396 22.5785 31.1591 22.6222 31.1774 22.6671C31.2609 22.8696 31.3361 23.0744 31.4028 23.2829V23.2841C31.4706 23.4914 31.5299 23.7023 31.5797 23.9146V23.9156C31.6319 24.129 31.6744 24.3449 31.7094 24.5619C31.7447 24.7812 31.7725 25.0031 31.7906 25.225V25.2262C31.81 25.4528 31.8197 25.6796 31.8209 25.9063C31.8233 26.139 31.8161 26.3719 31.7991 26.6033C31.7833 26.8421 31.7567 27.081 31.7201 27.3185V27.3197C31.6826 27.5681 31.6341 27.8142 31.5736 28.058C31.5116 28.3161 31.4377 28.5707 31.3505 28.8217C31.2596 29.0884 31.1541 29.3503 31.0341 29.6061C31.0328 29.6097 31.0316 29.6145 31.0292 29.6182H31.028V29.6192C30.8946 29.9077 30.742 30.1891 30.5721 30.4593V30.4605C30.3746 30.7768 30.1528 31.08 29.9078 31.366C29.9067 31.3673 29.9054 31.3697 29.9042 31.3709C29.5708 31.7601 29.1937 32.1176 28.7719 32.4353L28.7706 32.4365C28.7537 32.4499 28.7368 32.4633 28.7185 32.4754C27.55 33.3421 26.0516 33.9047 24.2236 33.9919H24.2224C24.1642 33.9955 24.1073 33.9979 24.0491 33.9991H24.0454L23.9085 34.0027C23.3799 33.9931 22.8768 33.9445 22.4017 33.8609H22.4004C22.3956 33.8609 22.392 33.8597 22.3871 33.8586C22.3858 33.8586 22.3858 33.8573 22.3858 33.8573C21.9701 33.7845 21.5761 33.6851 21.2016 33.5603H21.2003C20.8731 33.4512 20.5615 33.324 20.2644 33.1796H20.2632C20.256 33.176 20.2487 33.1724 20.2415 33.1675H20.2403C19.9784 33.0403 19.7287 32.8996 19.491 32.7457H19.4899C19.2607 32.599 19.0438 32.4401 18.8378 32.2718C18.6414 32.113 18.4558 31.9431 18.2801 31.7663C18.2789 31.7663 18.2789 31.7651 18.2789 31.7651C18.1091 31.5952 17.9504 31.4184 17.8001 31.2341C17.6534 31.0557 17.5164 30.8704 17.3891 30.68C17.263 30.4933 17.1466 30.3018 17.0376 30.1067V30.1055C16.9309 29.9127 16.8315 29.7151 16.7417 29.514C16.6521 29.3151 16.5708 29.1115 16.4969 28.9054C16.423 28.6994 16.3587 28.4908 16.3005 28.2799V28.2787C16.2435 28.0678 16.1937 27.8532 16.1526 27.6385C16.1115 27.4204 16.0787 27.2022 16.0532 26.9816C16.0277 26.7573 16.0108 26.5331 16.0022 26.3076C15.9937 26.0773 15.9937 25.8481 16.0034 25.6178L16.0039 25.6176ZM13.5528 26.4286C13.5613 26.6528 13.577 26.8782 13.5987 27.1027C13.6205 27.3245 13.6486 27.5462 13.6825 27.7658C13.7163 27.984 13.7564 28.1997 13.8037 28.4154C13.8486 28.6288 13.9006 28.8421 13.96 29.0531V29.0543C14.0182 29.2652 14.0825 29.4737 14.154 29.6798V29.6811C14.2243 29.8871 14.3007 30.0919 14.3842 30.2932V30.2944C14.4667 30.4968 14.5564 30.6968 14.6534 30.8945C14.7492 31.0945 14.8523 31.2909 14.9626 31.4837C15.073 31.6788 15.1905 31.8705 15.3141 32.0571C15.439 32.2472 15.5711 32.4328 15.7105 32.6146V32.6159H15.7118C15.8523 32.8014 16.0015 32.9831 16.1578 33.1589C16.1699 33.1735 16.1833 33.1881 16.1967 33.2027C16.3433 33.3674 16.4973 33.5275 16.6574 33.6827H16.6585C16.7823 33.8027 16.9084 33.9204 17.0391 34.0318C17.0985 34.0852 17.1592 34.1361 17.2198 34.1869H17.221C17.4234 34.3542 17.6344 34.5143 17.855 34.667H17.8562C18.0864 34.827 18.3266 34.9786 18.5762 35.118V35.1192C18.5787 35.1216 18.581 35.1228 18.5847 35.1241C18.8392 35.2695 19.1048 35.4041 19.3787 35.5277C19.386 35.5313 19.3933 35.5338 19.3993 35.5362H19.4005C19.6793 35.6623 19.9668 35.7763 20.2648 35.878C20.2952 35.889 20.3266 35.8986 20.357 35.9097H20.3582C20.5484 35.9727 20.7438 36.0322 20.9425 36.0855C21.1254 36.1352 21.311 36.18 21.5013 36.2212H21.5037C21.9606 36.3195 22.4359 36.3921 22.9318 36.4382H22.9341C23.2507 36.4662 23.5755 36.4843 23.9088 36.4904C24.3113 36.4832 24.7015 36.4588 25.0798 36.4176H25.0822C25.1537 36.4104 25.2265 36.4019 25.2968 36.3921C25.5429 36.3619 25.7828 36.3254 26.018 36.2807C26.0216 36.2794 26.0241 36.2794 26.0265 36.2794C26.2459 36.2383 26.4594 36.191 26.6689 36.1376C26.6774 36.1352 26.6861 36.1327 26.6933 36.1327C26.715 36.128 26.7357 36.1231 26.7564 36.1195C27.7406 35.8661 28.6219 35.4879 29.4171 35.0175C29.4171 35.0175 29.4171 35.0164 29.4183 35.0164C29.4596 34.9933 29.5008 34.9678 29.542 34.9424V34.9412C29.9989 34.6612 30.4233 34.3459 30.8137 34.0029C30.9142 33.9156 31.0113 33.826 31.107 33.7349V33.7338H31.1082L31.1095 33.7326C31.4076 33.4477 31.6827 33.1483 31.9374 32.8318C31.9616 32.8028 31.9846 32.7749 32.0065 32.7458H32.0077C32.2355 32.4573 32.4465 32.1579 32.6393 31.8475V31.8463C32.644 31.8403 32.6478 31.8342 32.6514 31.8282C32.8186 31.5591 32.9727 31.2826 33.1131 31.0003L33.1144 30.999C33.1192 30.9893 33.1252 30.9784 33.1288 30.9686C33.2562 30.7141 33.3726 30.4535 33.4781 30.1892V30.188C33.4781 30.1856 33.4794 30.1844 33.4805 30.182C33.5811 29.9274 33.6733 29.6691 33.7545 29.4072C33.8333 29.1576 33.9023 28.9042 33.963 28.6484V28.6472C34.0212 28.4024 34.0722 28.1562 34.1133 27.9077C34.1532 27.6688 34.186 27.4289 34.2114 27.1865V27.1853L34.2636 26.4785V26.4773C34.2733 26.247 34.2769 26.0168 34.2721 25.7852C34.2696 25.5585 34.2587 25.3317 34.2417 25.1051C34.226 24.882 34.2028 24.659 34.1726 24.4383V24.4371C34.1436 24.2177 34.1083 23.9994 34.0671 23.7825C34.026 23.5668 33.9774 23.3522 33.9228 23.1401C33.8731 22.9365 33.815 22.734 33.7518 22.5339C33.7494 22.5255 33.7471 22.5182 33.7433 22.5096V22.5084C33.6792 22.2999 33.6064 22.0938 33.5289 21.8902C33.4501 21.6853 33.3651 21.4829 33.2743 21.284C33.1882 21.0962 33.0972 20.9108 33.0002 20.7288C32.9942 20.7155 32.987 20.7033 32.9797 20.6913C32.8826 20.5082 32.7796 20.3289 32.6718 20.1531C32.6634 20.1385 32.6549 20.1253 32.6451 20.1119C32.5336 19.9313 32.416 19.7555 32.2924 19.5821C32.2839 19.57 32.2754 19.5591 32.267 19.547C32.1421 19.3726 32.0099 19.2027 31.8717 19.0367C31.862 19.0234 31.8511 19.0101 31.8403 18.9978C31.77 18.9131 31.6972 18.8295 31.6233 18.7482C31.5384 18.6524 31.4511 18.5591 31.3602 18.467V18.4658C31.1892 18.2888 31.0099 18.1179 30.8231 17.9543L30.8473 17.9458H30.8135C30.6219 17.7784 30.4231 17.6173 30.217 17.4645C29.9976 17.3009 29.7696 17.1458 29.5321 17.0014C29.2823 16.8463 29.0216 16.7021 28.7514 16.5699H28.7502C28.4763 16.4329 28.1926 16.3081 27.8993 16.1966C27.8823 16.1894 27.8666 16.1833 27.8496 16.1784C27.8496 16.1784 27.8495 16.1772 27.8483 16.1772H27.8472C27.5065 16.0475 27.1525 15.9347 26.7839 15.8402H26.7814C26.3657 15.7298 25.933 15.6438 25.482 15.5807H25.4795C24.9777 15.5092 24.454 15.4681 23.9085 15.4583H23.763H23.6017C23.5908 15.4621 23.58 15.4656 23.569 15.4692C21.1251 15.5722 19.1286 16.3227 17.5781 17.4803C17.5588 17.4948 17.5406 17.5081 17.5223 17.5226L17.5212 17.5238C17.3441 17.6572 17.1745 17.7966 17.0096 17.9408C16.7659 18.1542 16.5368 18.376 16.3211 18.61L16.3198 18.6113H16.3188L16.3176 18.6125C16.166 18.776 16.0194 18.9434 15.8812 19.1167C15.7625 19.2609 15.6509 19.4076 15.5429 19.5579V19.5591C15.3393 19.8415 15.1514 20.1336 14.9793 20.4345V20.4356C14.9733 20.4453 14.9672 20.455 14.9623 20.466C14.8133 20.7267 14.6763 20.9934 14.5526 21.2662V21.2672H14.5515C14.4326 21.5279 14.3235 21.7946 14.2253 22.0649H14.2241V22.0661C14.1683 22.2213 14.1149 22.3765 14.0666 22.5341C14.0337 22.6346 14.0046 22.7353 13.9756 22.8371C13.9053 23.0855 13.8435 23.3365 13.7913 23.5887V23.5898C13.7392 23.8322 13.6968 24.076 13.6616 24.3221C13.6278 24.5596 13.601 24.7985 13.5817 25.0373V25.0385C13.5621 25.2725 13.5513 25.5065 13.5464 25.7404C13.5415 25.9695 13.544 26.1986 13.5525 26.4277V26.4289L13.5528 26.4286Z" fill="#FF6E4A"/>
<path d="M21.6491 25.8201C21.6637 25.5655 21.7184 25.3134 21.8105 25.077C21.9438 24.7291 22.1596 24.415 22.4565 24.1726H22.4578L22.4588 24.1715C22.8091 23.8854 23.2723 23.6998 23.8494 23.6781C23.8505 23.6769 23.8518 23.6769 23.8541 23.6781C23.8906 23.6781 23.9184 23.6769 23.9378 23.6769H23.9415C23.9451 23.6769 23.9487 23.6769 23.9511 23.6781H23.9536C24.4032 23.6914 24.7852 23.8054 25.0979 23.9883C25.3257 24.1217 25.5172 24.2915 25.6736 24.4879V24.4891C25.8142 24.6649 25.9246 24.86 26.0056 25.0686C26.0856 25.2723 26.1378 25.4892 26.1598 25.7088C26.1839 25.9402 26.1767 26.1754 26.1378 26.4058C26.0905 26.6797 25.9971 26.9464 25.8591 27.1878L25.8578 27.1889C25.505 27.8035 24.8554 28.2558 23.9085 28.2727C23.5898 28.2667 23.3048 28.2122 23.0527 28.1176H23.0515V28.1163H23.0504C22.7678 28.011 22.5292 27.8559 22.3315 27.6655V27.6643C22.1617 27.5031 22.0249 27.3151 21.9182 27.1115C21.8162 26.9175 21.7423 26.709 21.6987 26.4945V26.4933H21.6976C21.6514 26.2727 21.6357 26.046 21.649 25.8205L21.6491 25.8201ZM19.1919 25.9426C19.1907 26.1692 19.204 26.3946 19.2307 26.6191V26.6203C19.2585 26.8384 19.2987 27.0554 19.3532 27.2687V27.2699C19.4066 27.4821 19.4745 27.6905 19.5556 27.893C19.6369 28.0979 19.7327 28.2967 19.8417 28.4882C19.9533 28.6846 20.0794 28.8738 20.2212 29.052V29.0531H20.2225C20.3691 29.2411 20.534 29.418 20.7133 29.5805C20.9074 29.7564 21.1195 29.9175 21.3509 30.0593C21.3509 30.0593 21.3521 30.0593 21.3521 30.0606C21.6128 30.2207 21.8965 30.3575 22.2057 30.4667H22.208C22.5936 30.6037 23.0167 30.6958 23.4762 30.737L23.4069 30.7602H23.9087C25.3101 30.7346 26.3986 30.2521 27.1756 29.5139V29.5126C27.4702 29.2338 27.72 28.9175 27.9249 28.5757L27.9261 28.5745C28.0813 28.315 28.211 28.041 28.314 27.7562L28.3153 27.755C28.4049 27.5088 28.4752 27.2544 28.5261 26.9961C28.5735 26.7584 28.6038 26.5185 28.616 26.2761V26.2748C28.6305 26.0458 28.6293 25.8154 28.6111 25.5876C28.5954 25.3657 28.5651 25.1452 28.5214 24.9268C28.4779 24.7122 28.4209 24.5001 28.3504 24.294V24.2929C28.2801 24.0855 28.1953 23.8819 28.0972 23.6867C27.9977 23.4866 27.8838 23.2939 27.7554 23.1108V23.1096C27.622 22.9182 27.474 22.7363 27.3103 22.5666H27.3092C27.2583 22.5132 27.206 22.4623 27.1516 22.4125C27.0219 22.2889 26.8825 22.175 26.7346 22.0683H26.7334V22.0671C26.7056 22.0465 26.6764 22.0272 26.6474 22.0065C26.4461 21.8683 26.2291 21.7434 25.9952 21.6366H25.994C25.988 21.6343 25.9819 21.6318 25.9759 21.6282H25.9747C25.9528 21.6185 25.9322 21.6088 25.9092 21.599C25.6025 21.4657 25.2692 21.3615 24.909 21.2912H24.9067C24.8933 21.2876 24.8812 21.2851 24.8678 21.2827H24.8665C24.5648 21.2269 24.2459 21.1942 23.9088 21.1882C23.4542 21.1966 23.0324 21.2524 22.6446 21.3506H22.6433L22.6385 21.3517L22.6348 21.353H22.6325C22.4034 21.4112 22.1864 21.484 21.9803 21.5687L21.9767 21.57V21.5712H21.9755L21.9646 21.5748C21.4446 21.793 20.9972 22.0924 20.6238 22.4525C20.6227 22.4525 20.6227 22.4538 20.6227 22.4538C20.5002 22.5701 20.3874 22.6924 20.2809 22.821V22.8221C20.0565 23.0926 19.8686 23.387 19.7146 23.6987V23.6998H19.7135C19.711 23.7047 19.7098 23.7083 19.7074 23.7132C19.5838 23.9628 19.4832 24.2235 19.4042 24.4914L19.311 24.5228L19.4042 24.4927C19.3329 24.7352 19.2793 24.9836 19.2443 25.2345L19.123 25.2747V25.2758L19.2443 25.2359C19.2103 25.4698 19.1933 25.7061 19.1921 25.9426H19.1919Z" fill="#FF6E4A"/>
<path d="M39.7023 43.937C39.6697 43.7746 39.6236 43.5867 39.5618 43.36C39.5277 43.2375 39.4902 43.1042 39.4477 42.9575C39.203 43.194 38.9507 43.4243 38.6925 43.6473L38.6913 43.6485C38.2028 44.0716 37.6911 44.4704 37.1591 44.8438V44.845C36.3614 45.4074 35.5165 45.9165 34.6363 46.37L34.6315 46.3711C34.6218 46.3772 34.611 46.3821 34.5999 46.3881C34.0095 46.6899 33.4023 46.9677 32.7827 47.2185C31.3038 47.8173 29.7509 48.2707 28.1665 48.5665C28.0417 48.5907 27.9179 48.6126 27.7932 48.6345C26.7749 48.8077 25.7457 48.9181 24.714 48.9616C24.0194 48.992 23.3237 48.992 22.6314 48.9606C22.0702 48.9363 21.5113 48.8913 20.9562 48.8248C20.4761 48.7678 19.9997 48.6963 19.5257 48.609H19.5245C19.5233 48.6078 19.5221 48.6078 19.5209 48.6078C19.1003 48.5303 18.6821 48.4393 18.2674 48.3362C18.265 48.3362 18.2638 48.3362 18.2626 48.335C17.8905 48.2428 17.5207 48.1411 17.1558 48.0271C17.1474 48.0258 17.1401 48.0234 17.1317 48.0198H17.1304C16.7922 47.9155 16.4563 47.8016 16.1243 47.678H16.1231C16.1159 47.6768 16.1098 47.6731 16.1025 47.6707C15.7836 47.5532 15.4686 47.4271 15.1569 47.2924C15.1 47.2682 15.0443 47.2441 14.9873 47.2185C14.8151 47.1421 14.6442 47.0634 14.4746 46.9821C14.5157 47.0621 14.5594 47.1409 14.6055 47.2185C14.6468 47.2912 14.6903 47.3615 14.7352 47.4319C14.8625 47.6343 14.9971 47.8247 15.1244 47.9943C15.1292 47.9992 15.1317 48.004 15.1353 48.0088C15.3037 48.2296 15.459 48.4138 15.5704 48.5361C15.5765 48.5435 15.5826 48.5495 15.5886 48.5557C15.6576 48.632 15.7075 48.6816 15.7292 48.6975C15.7693 48.7277 15.8457 48.8865 15.9377 49.1048C15.9401 49.1109 15.9425 49.1169 15.945 49.123C16.0165 49.2976 16.0977 49.5073 16.1764 49.717C16.1789 49.7243 16.1825 49.7315 16.1849 49.7388C16.2637 49.9497 16.3401 50.1582 16.4019 50.3317C16.4067 50.3449 16.4104 50.3571 16.4152 50.3692C16.757 50.4806 17.1014 50.5825 17.4493 50.6757C17.8481 50.7849 18.2494 50.8819 18.6541 50.9668C18.9997 51.0407 19.3464 51.1062 19.6955 51.1632C19.7962 51.1813 19.898 51.197 19.9987 51.213C20.3477 51.2651 20.698 51.3111 21.0496 51.3474C21.2107 51.3657 21.3721 51.3815 21.5345 51.3948H21.5357C21.8873 51.4264 22.2412 51.4494 22.5951 51.4651H22.5976C22.846 51.4772 23.0934 51.4846 23.342 51.4869H23.3431C24.1032 51.499 24.8657 51.476 25.627 51.4202H25.6294C26.7555 51.3391 27.8781 51.1838 28.9836 50.9595C29.0953 50.9378 29.2055 50.9148 29.3159 50.8905L29.3219 50.8892C31.1645 50.4893 32.9562 49.905 34.64 49.1291L34.6727 49.1182L34.8012 49.0757H34.7649C35.8243 48.5848 36.8402 48.0248 37.7979 47.3945C37.7991 47.3945 37.7991 47.3932 37.8003 47.3932H37.8015C37.8027 47.3932 37.8027 47.392 37.8039 47.392H37.8051C37.8924 47.335 37.9797 47.278 38.0658 47.2188C38.5543 46.8891 39.0283 46.5398 39.4841 46.1738C39.4866 46.1641 39.4877 46.1543 39.4902 46.1447V46.1434C39.4915 46.1373 39.4926 46.1301 39.4938 46.1241C39.5472 45.8379 39.5955 45.6039 39.6357 45.4063C39.6369 45.4016 39.6369 45.3978 39.638 45.3931C39.6624 45.2718 39.684 45.1628 39.7023 45.0634C39.7278 44.9214 39.7471 44.7966 39.7556 44.6766C39.7568 44.6743 39.7568 44.673 39.7568 44.6705C39.7737 44.4573 39.7617 44.2572 39.7143 43.999C39.7107 43.9796 39.7071 43.9591 39.7022 43.9371L39.7023 43.937Z" fill="#FF6E4A"/>
<path d="M3.08905 14.7062C2.92542 14.699 2.79457 14.6771 2.72055 14.6311C2.61501 14.5668 2.58596 14.402 2.59568 14.1802C2.60178 13.9766 2.64167 13.7244 2.68179 13.4601C2.71919 13.2213 2.75807 12.9716 2.77626 12.739C2.79683 12.4831 2.79321 12.2468 2.73739 12.0625C2.71682 11.9922 2.68767 11.9292 2.65015 11.8757C2.58947 11.9668 2.5289 12.0589 2.46946 12.151C2.28526 12.4358 2.10706 12.7243 1.9336 13.0176C1.76748 13.2976 1.6077 13.5803 1.45356 13.8663C1.30326 14.1414 1.16032 14.4202 1.02087 14.7002V14.7015C0.887526 14.9718 0.757799 15.2435 0.634061 15.5186C0.514051 15.7841 0.399014 16.0532 0.28748 16.3235C0.187924 16.566 0.0922105 16.8108 0 17.0568V19.1795V19.2536C0.00847523 19.2439 0.072774 19.1929 0.17459 19.1214C0.574734 18.8426 1.56622 18.2377 2.14457 18.4439C2.23305 18.1893 2.32527 17.9372 2.42222 17.6875C2.5263 17.4196 2.63433 17.1529 2.74812 16.8897C2.86576 16.617 2.9895 16.3478 3.11663 16.0788V16.0775C3.25121 15.7975 3.39066 15.5211 3.53485 15.2483C3.63316 15.063 3.73374 14.8787 3.83679 14.6956V14.4591L3.0912 14.7065H3.08883L3.08905 14.7062Z" fill="#FF6E4A"/>
<path d="M24.0277 2.94772C24.6424 2.95009 25.258 2.978 25.869 3.02897H25.8703C26.3866 3.07123 26.8995 3.13191 27.4086 3.20943H27.4097C27.8632 3.27735 28.3104 3.35973 28.753 3.45555C29.1409 3.53805 29.524 3.63139 29.9009 3.73558C29.8088 3.54042 29.7143 3.35125 29.6185 3.16954C29.5119 2.96591 29.4039 2.77064 29.2972 2.58532C29.1783 2.38044 29.0607 2.18902 28.9456 2.01194C28.811 1.80221 28.6801 1.61428 28.5588 1.44828C28.3917 1.22284 28.2414 1.03977 28.114 0.906431C28.0692 0.859195 28.0281 0.817949 27.9892 0.782692C27.6206 0.723253 27.2461 0.671271 26.8691 0.627539C26.3188 0.563353 25.7611 0.517361 25.2023 0.488206L25.3029 0.455322H23.9028H23.2166L23.1876 0.465041H23.1863C22.9477 0.472273 22.7089 0.481991 22.4724 0.496681C22.4785 0.566969 22.4821 0.634884 22.4808 0.69907C22.4785 1.007 22.3997 1.25425 22.2675 1.45913C21.6942 2.34892 20.1098 2.42293 19.3678 3.10897C19.26 3.20853 19.1703 3.31995 19.1035 3.44968C19.9183 3.27159 20.7582 3.14062 21.6094 3.05812C22.4083 2.97913 23.218 2.94286 24.0277 2.94772Z" fill="#FF6E4A"/>
<path d="M47.0994 15.3296C47.0085 15.1296 46.9138 14.9308 46.8157 14.7343C46.7188 14.5355 46.6181 14.3391 46.5151 14.1439C46.412 13.9463 46.3066 13.7511 46.1975 13.5572C46.0897 13.3621 45.978 13.1693 45.864 12.9779C45.7488 12.7851 45.6326 12.5935 45.5126 12.4045C45.3924 12.2143 45.2701 12.0238 45.1441 11.8372C45.0179 11.6468 44.8895 11.4601 44.7572 11.2747C44.6251 11.0868 44.4906 10.9014 44.3512 10.7184C44.3524 10.7171 44.3512 10.7146 44.3476 10.7135C44.2347 10.5596 44.1183 10.4079 43.9997 10.2564C43.6651 10.3267 43.3948 10.3813 43.1632 10.42C43.162 10.4213 43.1609 10.4213 43.1596 10.4213C42.5897 10.5171 42.259 10.5194 41.7909 10.437C41.6516 10.4116 41.4988 10.3788 41.3242 10.3387H41.323C41.1327 10.2952 40.9145 10.243 40.6562 10.1812C40.746 10.277 40.8357 10.3727 40.9242 10.4709C40.9254 10.4709 40.9254 10.4709 40.9254 10.4721C41.0853 10.6467 41.2431 10.8248 41.3969 11.0055C41.5495 11.1826 41.6998 11.3631 41.8466 11.5462C41.8466 11.5462 41.8479 11.5462 41.8479 11.5472C41.8479 11.5472 41.849 11.5472 41.849 11.5485C41.9947 11.7279 42.1365 11.9096 42.2757 12.0952C42.3132 12.1448 42.3508 12.1945 42.3885 12.2443C42.489 12.3788 42.5874 12.5147 42.6843 12.6504C42.8164 12.8359 42.9448 13.0225 43.071 13.2117C43.1971 13.3996 43.3196 13.5888 43.4395 13.7802C43.5582 13.9694 43.6734 14.1608 43.7875 14.3547C43.9001 14.5462 44.0104 14.7403 44.1172 14.9367C44.2238 15.1307 44.3281 15.3271 44.4274 15.5245C44.5281 15.7198 44.6263 15.9173 44.7195 16.1173C44.8154 16.315 44.9063 16.515 44.9949 16.7162C44.9973 16.7199 44.9985 16.7235 45.0009 16.7283C45.0833 16.9161 45.1645 17.1065 45.242 17.2981C45.259 17.2606 45.2749 17.2266 45.2845 17.2034C45.367 17.012 45.7308 16.6847 46.1572 16.3368C46.1597 16.3344 46.1633 16.3319 46.167 16.3295C46.504 16.0531 46.8797 15.7659 47.1877 15.5221V15.3003L47.0992 15.3295L47.0994 15.3296Z" fill="#FF6E4A"/>
<path d="M43.7932 18.4934C43.7157 18.2885 43.6357 18.0849 43.5519 17.8836C43.4707 17.6872 43.387 17.4921 43.2997 17.298C43.2973 17.2919 43.2937 17.2859 43.2912 17.2798C43.2876 17.2726 43.2852 17.2654 43.2815 17.2581C43.2779 17.2484 43.273 17.24 43.2694 17.2301C43.1858 17.0459 43.0998 16.8629 43.0113 16.6822C43.0077 16.6749 43.0041 16.6689 43.0005 16.6616C42.9071 16.4701 42.8114 16.2799 42.712 16.092H42.7107C42.7084 16.0858 42.7059 16.0799 42.7023 16.075C42.6016 15.8835 42.4974 15.6943 42.3918 15.5077L42.3908 15.5065C42.387 15.5004 42.3835 15.4944 42.3811 15.4883C42.2733 15.3005 42.1641 15.115 42.0514 14.9307V14.9295C41.9337 14.7367 41.8126 14.5464 41.6901 14.3586C41.5652 14.1694 41.4381 13.9816 41.3071 13.7961H41.3059C41.2672 13.7379 41.2248 13.6784 41.1835 13.6202C41.1835 13.6202 41.1835 13.6191 41.1823 13.6191L40.9035 13.2384H40.9022C40.764 13.0528 40.621 12.8699 40.4768 12.6904H40.4755C40.3301 12.5075 40.1798 12.3268 40.027 12.1485C39.8719 11.969 39.7142 11.7909 39.5531 11.6165C39.3907 11.4381 39.2234 11.2625 39.0535 11.0903C39.0427 11.0782 39.0306 11.066 39.0185 11.0538C38.5601 11.0577 38.1517 11.4576 37.4645 11.4965C37.3153 11.5049 37.1528 11.4965 36.9735 11.4636C36.7904 11.4213 36.6172 11.3508 36.4534 11.2599C36.2244 11.1338 36.0146 10.9666 35.8255 10.7787C35.6556 10.6113 35.503 10.4271 35.3672 10.2392C35.2411 10.0672 35.1297 9.89373 35.0338 9.72773C35.0229 9.70829 35.0121 9.69021 35.0011 9.67077C34.8739 9.44511 34.7733 9.23921 34.7041 9.07909C34.6399 8.93365 34.6012 8.82687 34.5879 8.77974C34.5091 8.6742 34.4303 8.5821 34.3538 8.50334C34.1113 8.25372 33.8762 8.125 33.6447 8.04873C33.2422 7.91538 32.8458 7.93832 32.4276 7.76136C32.2155 7.67051 31.9973 7.52869 31.7693 7.28867C31.7609 7.27895 31.7511 7.2681 31.7403 7.25827C31.6129 7.11883 31.482 6.94785 31.3475 6.73812C31.2395 6.57087 31.1305 6.37933 31.0177 6.15751C30.9789 6.07999 30.9377 5.99761 30.8976 5.91139C30.6989 5.83884 30.4989 5.77081 30.2963 5.70527C29.9314 5.58662 29.5592 5.47983 29.1836 5.384H29.1823C28.7714 5.27744 28.3556 5.18523 27.9348 5.10646C27.6064 5.04341 27.2767 4.98883 26.9433 4.94397H26.9421C26.7979 4.9234 26.6536 4.90385 26.5081 4.88814H26.5069C26.1723 4.84825 25.8364 4.81661 25.4996 4.7948H25.4972C25.2729 4.77672 25.0462 4.76463 24.8208 4.75616C24.428 4.74022 24.0339 4.73661 23.6412 4.74158H23.6376C23.3151 4.74644 22.994 4.75729 22.6727 4.77684H22.6714C21.7478 4.83017 20.8276 4.94046 19.9257 5.10658C19.9221 5.1076 19.9185 5.10759 19.9148 5.10895C19.613 5.16602 19.3136 5.22783 19.0166 5.29676C19.0153 5.29676 19.0141 5.29676 19.0129 5.29801C19.0117 5.29801 19.0105 5.29801 19.0094 5.29925C19.0081 5.29925 19.0069 5.29925 19.0055 5.30027C19.0045 5.30027 19.0019 5.30151 19.0008 5.30151C17.917 5.55249 16.8672 5.88336 15.8696 6.30046C15.7483 6.35142 15.6283 6.40238 15.5095 6.45561C15.5072 6.45685 15.5059 6.45685 15.5035 6.45798C15.5023 6.45798 15.5023 6.45923 15.5011 6.45923C15.3774 6.51505 15.2514 6.57065 15.1302 6.62884C15.1531 6.84581 15.1677 7.03746 15.1749 7.20708C15.1762 7.22403 15.1773 7.24109 15.1773 7.2568C15.187 7.52112 15.1798 7.72961 15.1616 7.89696C15.1592 7.91629 15.1569 7.93584 15.1544 7.95392C15.1034 8.32965 14.9932 8.48006 14.9082 8.59397C14.7592 8.81704 12.2256 9.07762 11.8897 9.48737C11.8086 9.59291 11.7334 9.6693 11.6643 9.7275C11.6267 9.76016 11.5904 9.7857 11.5565 9.80751L11.2401 9.92978C11.2388 9.92978 11.2364 9.93102 11.2339 9.93102C11.1758 9.94673 11.1202 9.96503 11.0643 9.99645L11.0631 9.99769C10.9189 10.0813 10.7735 10.2632 10.5855 10.7626C10.5746 10.7953 10.5551 10.8293 10.5285 10.8645V10.8657C10.2219 11.2864 9.00474 11.8852 8.83388 12.0223C8.81071 12.0403 8.77444 12.0853 8.72471 12.1507V12.152C8.58414 12.3399 8.34536 12.6926 8.0702 13.0575V13.0587C7.94047 13.2297 7.80227 13.4042 7.66282 13.5653C7.49908 13.7521 7.33432 13.9205 7.17668 14.0442C7.02277 14.1655 6.8761 14.2455 6.74637 14.2587C6.03852 14.3328 5.96337 14.5945 5.92585 14.7801C5.91975 14.8164 5.87726 14.8419 5.81183 14.86C5.72945 14.9946 5.6482 15.1292 5.56809 15.2661C5.40457 15.5438 5.24817 15.825 5.09788 16.111V16.1123C5.09178 16.1219 5.08692 16.1316 5.08217 16.1414C4.94397 16.4032 4.81176 16.67 4.68451 16.939C4.5584 17.2057 4.43839 17.4759 4.32324 17.7488C4.21306 18.0106 4.10752 18.2749 4.00819 18.5428H4.00695C3.9622 18.6616 3.91847 18.7817 3.87598 18.9028V20.6568L6.12237 19.9125C6.12237 19.9125 6.1235 19.9137 6.12474 19.9125C6.13446 19.915 6.14531 19.9173 6.15638 19.9186C6.15875 19.9125 6.16 19.9065 6.16237 19.9004C6.25322 19.6361 6.35029 19.3742 6.45346 19.1149C6.55878 18.8446 6.67156 18.578 6.79044 18.3136C6.91407 18.0359 7.04628 17.762 7.18324 17.4917H7.18448C7.32867 17.2068 7.48021 16.9267 7.63774 16.6517H7.63898L7.66316 16.6432V16.6079C7.81956 16.3389 7.98206 16.0733 8.15043 15.814C8.15529 15.8042 8.16139 15.7959 8.16874 15.7874V15.7862C8.35791 15.4941 8.55431 15.2079 8.7602 14.9278C8.7602 14.9254 8.76144 14.9242 8.76404 14.9229C8.77127 14.9121 8.7785 14.9012 8.78698 14.8915C9.01965 14.5726 9.2634 14.2624 9.51562 13.9606C9.51664 13.9606 9.51664 13.9594 9.51664 13.9594C9.72276 13.7132 9.93486 13.4732 10.1519 13.2382C10.2332 13.1509 10.3132 13.0647 10.3957 12.9798L10.3969 12.9787H10.3982C10.6489 12.7168 10.9084 12.4623 11.1751 12.2149C11.2795 12.1181 11.3861 12.0211 11.494 11.9267C11.494 11.9267 11.494 11.9254 11.4952 11.9254C11.9655 11.5096 12.4578 11.1156 12.9692 10.7484V10.7471C13.4759 10.3822 14.0021 10.0417 14.5452 9.72761C14.8409 9.5554 15.1405 9.39301 15.4458 9.2391C15.4458 9.23786 15.447 9.23786 15.447 9.23786C17.0884 8.4039 18.8692 7.80498 20.7444 7.48507H20.748C21.6887 7.32381 22.6526 7.23284 23.6345 7.21951C23.7254 7.21827 23.8175 7.21714 23.9096 7.21714C24.4515 7.21714 24.9872 7.24008 25.5182 7.28618C26.0273 7.32856 26.5305 7.39297 27.0275 7.47772C27.4627 7.54925 27.8929 7.63773 28.3172 7.74079C28.6785 7.8269 29.036 7.92499 29.3877 8.03415C29.4106 8.04025 29.4325 8.04624 29.4543 8.05472C29.801 8.1615 30.1429 8.27778 30.4811 8.40503C30.7964 8.52391 31.1078 8.65002 31.4156 8.78573C31.708 8.91309 31.9952 9.04767 32.2789 9.18949H32.2801C32.5504 9.32521 32.8171 9.46703 33.0789 9.61619C33.1445 9.65122 33.2099 9.68885 33.2753 9.72761C33.4621 9.83418 33.6451 9.94458 33.8269 10.0597C34.0634 10.2064 34.2961 10.3592 34.5251 10.5181C34.747 10.6707 34.9664 10.8283 35.1809 10.9909C35.3906 11.1472 35.5967 11.3095 35.798 11.4769C35.9955 11.6382 36.1882 11.8043 36.3786 11.9739L36.3797 11.9751C36.5665 12.1401 36.7482 12.3097 36.9277 12.483V12.4842C37.1035 12.6528 37.2769 12.8249 37.4442 13.0018H37.4452V13.003C37.6126 13.1762 37.775 13.3521 37.9338 13.5315C38.0454 13.6576 38.1556 13.785 38.2636 13.9135V13.9147C38.3084 13.9657 38.3509 14.0164 38.3931 14.0686C38.541 14.2481 38.6855 14.431 38.826 14.6166C38.9666 14.7983 39.1024 14.9826 39.2345 15.1705C39.3655 15.3561 39.4939 15.5452 39.6188 15.7354H39.62C39.7399 15.921 39.8588 16.1089 39.9727 16.2992C39.9752 16.3017 39.9765 16.3041 39.9775 16.3064C40.0928 16.4968 40.2042 16.6884 40.311 16.8834C40.311 16.8834 40.3134 16.8847 40.3121 16.8859C40.4199 17.0762 40.5231 17.269 40.6226 17.464C40.6238 17.4665 40.6249 17.4689 40.6262 17.4714C40.7245 17.6639 40.8202 17.8593 40.9111 18.0567C40.9134 18.0592 40.9147 18.0628 40.9159 18.0665C41.0091 18.2653 41.0989 18.4654 41.1838 18.6677C41.2698 18.869 41.351 19.0715 41.43 19.2751C41.5087 19.48 41.5826 19.6861 41.6529 19.8934C41.7257 20.0995 41.7924 20.3067 41.8567 20.5152C41.9197 20.7237 41.979 20.9335 42.0348 21.1456H42.036C42.0917 21.3565 42.1449 21.5699 42.1935 21.7844C42.2433 21.9977 42.2881 22.2124 42.3292 22.4294C42.3317 22.4391 42.333 22.45 42.3353 22.4598C42.8094 22.5022 43.1232 22.5337 43.1232 22.5337C43.0773 22.421 43.0542 22.3083 43.0505 22.1906C43.0421 21.9675 43.1026 21.7289 43.2153 21.4463C43.3088 21.21 43.4396 20.942 43.596 20.6293C43.7185 20.3843 43.8555 20.1127 44.0034 19.8049H44.0044C44.0505 19.7092 44.0979 19.6085 44.1464 19.5055C44.104 19.3733 44.0603 19.2426 44.0155 19.1115C43.9452 18.9043 43.8712 18.6981 43.7937 18.4933L43.7932 18.4934Z" fill="#FF6E4A"/>
<path d="M38.6728 49.1751C37.6678 49.8176 36.6194 50.3959 35.5307 50.905L35.5294 50.9062C35.0857 51.1135 34.636 51.3086 34.1802 51.493C32.6565 52.1088 31.0659 52.5901 29.4234 52.9258C29.2768 52.9562 29.1301 52.984 28.9834 53.0119C29.004 53.024 29.0245 53.0375 29.0465 53.0506C29.2416 53.1743 29.4573 53.3417 29.6768 53.5319C29.8611 53.6883 30.0477 53.8616 30.2284 54.0386C30.4064 54.212 30.5799 54.3901 30.7399 54.5597C30.7423 54.5622 30.7459 54.5658 30.7483 54.5695C30.9194 54.7512 31.0744 54.9234 31.203 55.0727H31.2769L31.5314 54.9878H31.5338C32.7339 54.6714 33.9049 54.2835 35.0408 53.8277C35.0421 53.8277 35.0421 53.8265 35.0433 53.8265C35.5888 53.607 36.127 53.373 36.6569 53.1234C36.5694 52.9972 36.498 52.8955 36.4518 52.8349C36.4252 52.7998 36.3984 52.7537 36.373 52.6967C36.373 52.6967 36.3719 52.6954 36.373 52.6943C36.3027 52.5391 36.2422 52.3123 36.1949 52.0651C36.1609 51.8785 36.1331 51.6797 36.1173 51.493C36.1149 51.4628 36.1125 51.4324 36.1113 51.4033C36.0895 51.0978 36.1004 50.8312 36.1538 50.7111C36.1562 50.7063 36.1598 50.7015 36.1635 50.6966V50.6954C36.5101 50.1742 38.708 49.8699 38.8244 49.1255L38.8292 49.1243V49.123V49.0759C38.7783 49.1086 38.7273 49.1414 38.6752 49.174C38.6752 49.1753 38.6741 49.1753 38.6728 49.1753V49.1751Z" fill="#FF6E4A"/>
<path d="M38.3326 55.4993C38.3144 55.4313 38.2963 55.3623 38.278 55.2908C37.6754 55.5877 37.0634 55.8653 36.4402 56.1247C36.439 56.1247 36.439 56.126 36.4378 56.126L34.7686 56.6775V56.7684C35.0959 56.8691 35.4195 56.9648 35.7286 57.0509C36.1674 57.1733 36.5723 57.2775 36.9033 57.3515C37.3215 57.4437 37.6209 57.4872 37.7192 57.4568C38.0441 57.2689 38.2428 57.0775 38.3555 56.8715C38.4756 56.6484 38.4963 56.4107 38.4659 56.1452C38.444 55.9464 38.392 55.7331 38.3326 55.4991V55.4993Z" fill="#FF6E4A"/>
<path d="M44.1016 22.5338H44.1463V22.5181C44.1451 22.5192 44.1427 22.5204 44.1378 22.5204L44.1016 22.5338Z" fill="#FF6E4A"/>
<path d="M39.1455 16.5817C39.1542 16.578 39.1629 16.5754 39.1717 16.573L39.1455 16.5804V16.5817Z" fill="#FF6E4A"/>
<path d="M17.4661 47.221C17.4975 47.2102 17.5291 47.1992 17.5619 47.187L17.4648 47.2187V47.2198L17.4661 47.221Z" fill="#FF6E4A"/>
<path d="M5.8506 31.0461C5.79116 30.8364 5.73545 30.6255 5.68448 30.4122C5.66392 30.3297 5.64437 30.246 5.62504 30.1636C5.60809 30.2315 5.58515 30.2752 5.55351 30.2861C5.33044 30.36 5.06861 30.2486 5.06861 30.2486C5.08071 30.3686 5.07946 30.4933 5.06624 30.6171C5.03946 30.8789 4.9607 31.1407 4.84803 31.3782C4.77289 31.537 4.68305 31.6838 4.58496 31.8112C4.58496 31.8112 4.83458 31.8706 5.18987 31.9554C5.4856 32.0259 5.85546 32.1131 6.21548 32.1979C6.15356 32.0246 6.09536 31.85 6.03965 31.6743C5.97298 31.4668 5.90992 31.2573 5.85048 31.0464L5.8506 31.0461Z" fill="#FF6E4A"/>
</g>
<defs>
<clipPath id="clip0_1119_945">
<rect width="131" height="57.0901" fill="white" transform="translate(0 0.455078)"/>
</clipPath>
</defs>
</svg>
