<svg width="83" height="84" viewBox="0 0 83 84" fill="none" xmlns="http://www.w3.org/2000/svg">
<rect x="-2.40413" y="2.40413" width="78.1917" height="78.1917" rx="39.0959" transform="matrix(-1 0 0 1 78.1917 0.740234)" stroke="black" stroke-width="4.80827"/>
<path d="M56 39.9927C57.5174 39.9927 58.7476 41.2228 58.7476 42.7402C58.7476 44.2577 57.5174 45.4878 56 45.4878V39.9927ZM25.0572 44.6831C23.9842 43.6101 23.9842 41.8704 25.0572 40.7974L42.5427 23.3119C43.6157 22.2389 45.3553 22.2389 46.4283 23.3119C47.5013 24.3849 47.5013 26.1246 46.4283 27.1976L30.8857 42.7402L46.4283 58.2829C47.5013 59.3559 47.5013 61.0956 46.4283 62.1686C45.3553 63.2416 43.6157 63.2416 42.5427 62.1686L25.0572 44.6831ZM56 45.4878H27V39.9927H56V45.4878Z" fill="black"/>
</svg>
