<svg width="83" height="83" viewBox="0 0 83 83" fill="none" xmlns="http://www.w3.org/2000/svg">
<rect x="2.40413" y="2.40413" width="78.1917" height="78.1917" rx="39.0959" stroke="white" stroke-width="4.80827"/>
<path d="M27 39.2524C25.4826 39.2524 24.2524 40.4826 24.2524 42C24.2524 43.5174 25.4826 44.7476 27 44.7476V39.2524ZM57.9428 43.9428C59.0158 42.8698 59.0158 41.1302 57.9428 40.0572L40.4573 22.5717C39.3843 21.4987 37.6447 21.4987 36.5717 22.5717C35.4987 23.6447 35.4987 25.3843 36.5717 26.4573L52.1143 42L36.5717 57.5427C35.4987 58.6157 35.4987 60.3553 36.5717 61.4283C37.6447 62.5013 39.3843 62.5013 40.4573 61.4283L57.9428 43.9428ZM27 44.7476H56V39.2524H27V44.7476Z" fill="white"/>
</svg>
