<svg width="114" height="33" viewBox="0 0 114 33" fill="none" xmlns="http://www.w3.org/2000/svg">
<g clip-path="url(#clip0_1797_1099)">
<path d="M95.1008 18.779H100.076L98.1751 10.573C98.0454 10.1415 97.9532 9.69951 97.8995 9.25209C97.8438 8.88571 97.8168 8.51555 97.8187 8.14496C97.7842 8.97371 97.6239 9.79241 97.3435 10.573L95.1008 18.779ZM102.68 29.2943L101.178 23.7492H93.7607L92.0455 29.2943H83.2266L93.3854 1.45947H103.017L112.667 29.318L102.68 29.2943Z" fill="#009083"/>
<path fill-rule="evenodd" clip-rule="evenodd" d="M49.7651 23.2365C50.2211 23.0987 50.6536 22.9609 51.0479 22.804C51.4423 22.6473 51.8177 22.4904 52.1313 22.3289L53.9465 28.2304C53.1387 28.6261 52.309 28.9751 51.4614 29.2756C50.5575 29.5984 49.6358 29.8681 48.7007 30.0835C47.7365 30.3065 46.7609 30.4778 45.7784 30.5966C44.7836 30.7167 43.7822 30.7769 42.7801 30.7773C40.8642 30.812 38.9565 30.5178 37.1401 29.9077C35.5573 29.3669 34.1246 28.4601 32.9586 27.261C32.0008 26.2571 31.2429 25.0799 30.7254 23.7923C30.4422 23.2592 30.2175 22.6967 30.0554 22.1151C28.818 17.7924 28.9225 13.1961 30.3547 8.93416C30.8759 7.27692 31.7661 5.75952 32.9586 4.49617C34.1249 3.29858 35.5576 2.39337 37.1401 1.85428C38.9581 1.25066 40.8647 0.956721 42.7801 0.98474C43.7847 0.973859 44.7882 1.05337 45.7784 1.22232C46.7705 1.34177 47.7556 1.51467 48.7291 1.74024C49.6937 1.97782 50.6013 2.23441 51.4898 2.54801C52.3406 2.84051 53.1709 3.18974 53.9749 3.59336L52.1598 9.49485C51.8078 9.31652 51.446 9.15789 51.0764 9.01968C50.6821 8.86288 50.2688 8.72508 49.7935 8.58729C49.3183 8.4495 48.8432 8.3307 48.368 8.21191C47.8929 8.09313 47.413 7.98859 46.9426 7.91257C46.87 7.90084 46.7979 7.889 46.726 7.87722C46.332 7.81264 45.9494 7.7499 45.5836 7.71775C45.1914 7.66499 44.7961 7.63801 44.4004 7.63697C43.5062 7.62992 42.618 7.7828 41.7776 8.08836C41.0264 8.35841 40.3672 8.83628 39.877 9.46633C39.3218 10.2191 38.9315 11.0804 38.7318 11.9942C38.4158 13.2656 38.2561 14.5709 38.2567 15.881V15.938V15.9998C38.2548 17.3084 38.4144 18.6122 38.7318 19.8818C38.9267 20.7972 39.3173 21.6595 39.877 22.4097C40.3689 23.0391 41.0273 23.518 41.7776 23.7923C42.6127 24.0744 43.4908 24.2079 44.3719 24.1868C44.7283 24.1868 45.1228 24.163 45.5551 24.1059C45.6016 24.0999 45.6485 24.0937 45.6955 24.0875C46.085 24.0364 46.4902 23.9832 46.9141 23.9112C47.3892 23.8303 47.8644 23.7306 48.3395 23.6119C48.4072 23.5949 48.4753 23.578 48.5435 23.561C48.9546 23.4589 49.3739 23.3546 49.7651 23.2365ZM15.9099 17.4205C16.0287 17.8956 16.1285 18.3708 16.1855 18.7604C16.2409 19.1252 16.268 19.4939 16.2663 19.8629C16.2682 19.4922 16.3079 19.1229 16.3852 18.7604C16.4778 18.3073 16.5968 17.8598 16.7414 17.4205L21.6118 1.4599H30.3738L19.4832 29.2947H11.3104L1.33203 1.4599H11.3341L15.9099 17.4205ZM62.9269 21.0079H69.869V12.3505L62.9269 21.0079ZM78.132 27.4037V32.0174H69.8642V27.4037H56.5598L54.9394 21.483L69.2799 4.1398H78.1796V20.8512H83.2305L81.0353 27.4037H78.132Z" fill="#1F1F1F"/>
</g>
<defs>
<clipPath id="clip0_1797_1099">
<rect width="112.5" height="31.0345" fill="white" transform="translate(0.75 0.98291)"/>
</clipPath>
</defs>
</svg>
